<svg width="255" height="255" viewBox="0 0 255 255" fill="none" xmlns="http://www.w3.org/2000/svg">
<g filter="url(#filter0_d_8_998)">
<path d="M118.977 244.35L118.899 245.203C118.409 245.158 118.061 245.224 117.853 245.402C117.646 245.58 117.522 245.886 117.482 246.322L117.395 247.26C117.347 247.783 117.236 248.195 117.063 248.496C116.887 248.799 116.661 249.019 116.386 249.157C116.108 249.294 115.787 249.373 115.423 249.393C115.059 249.414 114.663 249.404 114.236 249.365L114.36 248.016C114.694 248.046 114.953 248.026 115.136 247.955C115.316 247.886 115.446 247.763 115.525 247.588C115.604 247.416 115.656 247.192 115.681 246.918L115.795 245.679C115.815 245.464 115.873 245.262 115.971 245.074C116.068 244.889 116.23 244.732 116.459 244.602C116.688 244.474 117.006 244.385 117.413 244.334C117.819 244.286 118.341 244.291 118.977 244.35ZM115.226 238.625C115.653 238.664 116.044 238.728 116.398 238.814C116.752 238.901 117.054 239.038 117.302 239.223C117.547 239.408 117.729 239.666 117.847 239.996C117.962 240.324 117.996 240.749 117.947 241.272L117.86 242.214C117.82 242.65 117.886 242.974 118.058 243.187C118.229 243.4 118.56 243.529 119.049 243.574L118.97 244.427C118.334 244.368 117.82 244.276 117.429 244.152C117.038 244.03 116.742 243.885 116.541 243.715C116.34 243.548 116.208 243.363 116.147 243.161C116.086 242.961 116.065 242.752 116.085 242.534L116.199 241.295C116.224 241.024 116.214 240.796 116.168 240.612C116.122 240.425 116.017 240.281 115.853 240.181C115.685 240.077 115.435 240.01 115.101 239.979L115.226 238.625ZM119.049 243.574L118.899 245.203L117.375 245.063L117.526 243.433L119.049 243.574Z" fill="#FF8A00"/>
<path d="M96.8385 240.632L97.049 239.802C97.5227 239.922 97.8772 239.911 98.1126 239.768C98.3453 239.625 98.5154 239.341 98.6229 238.917L98.8554 238C98.9846 237.491 99.1595 237.101 99.3802 236.832C99.5989 236.559 99.8562 236.377 100.152 236.285C100.445 236.192 100.773 236.164 101.136 236.2C101.497 236.236 101.886 236.307 102.304 236.413L101.97 237.73C101.645 237.648 101.388 237.628 101.199 237.671C101.007 237.71 100.858 237.81 100.753 237.971C100.649 238.129 100.563 238.341 100.496 238.605L100.19 239.811C100.136 240.023 100.047 240.213 99.9224 240.381C99.7971 240.551 99.6117 240.682 99.3661 240.772C99.1198 240.865 98.792 240.903 98.3828 240.887C97.9729 240.874 97.4581 240.789 96.8385 240.632ZM99.6537 246.867C99.2352 246.761 98.859 246.638 98.5253 246.498C98.1888 246.357 97.9138 246.176 97.7003 245.955C97.484 245.733 97.3447 245.45 97.2825 245.106C97.2168 244.764 97.2485 244.338 97.3777 243.828L97.6091 242.916C97.7167 242.492 97.7023 242.161 97.5659 241.924C97.4269 241.687 97.1205 241.508 96.6468 241.388L96.8574 240.558C97.477 240.715 97.9704 240.884 98.3378 241.065C98.7044 241.249 98.9742 241.439 99.1472 241.635C99.3195 241.834 99.4204 242.037 99.45 242.244C99.479 242.453 99.4669 242.663 99.4138 242.872L99.108 244.078C99.0403 244.345 99.0147 244.573 99.0313 244.762C99.0472 244.954 99.1301 245.112 99.2799 245.238C99.4262 245.366 99.6618 245.472 99.9868 245.554L99.6537 246.867ZM96.6468 241.388L97.049 239.802L98.5319 240.178L98.1297 241.764L96.6468 241.388Z" fill="#FF8A00"/>
<path d="M83.4687 236.031L83.1315 236.819C82.6797 236.625 82.3277 236.581 82.0756 236.686C81.8234 236.792 81.6112 237.045 81.439 237.447L81.0681 238.313C80.8612 238.796 80.629 239.154 80.3717 239.387C80.1106 239.621 79.8281 239.761 79.5241 239.807C79.2174 239.852 78.8877 239.828 78.5348 239.736C78.1819 239.643 77.8083 239.513 77.4139 239.344L77.9475 238.098C78.2557 238.23 78.508 238.29 78.7046 238.279C78.8975 238.269 79.0584 238.192 79.1875 238.05C79.3154 237.91 79.4336 237.713 79.5421 237.46L80.0321 236.316C80.1171 236.118 80.2347 235.944 80.385 235.795C80.5342 235.649 80.7377 235.549 80.9954 235.496C81.2521 235.445 81.5818 235.458 81.9847 235.535C82.3865 235.614 82.8812 235.78 83.4687 236.031ZM81.6607 229.43C82.0551 229.599 82.4074 229.779 82.7178 229.971C83.0282 230.162 83.273 230.384 83.4521 230.637C83.6285 230.889 83.722 231.19 83.7326 231.541C83.7416 231.888 83.6426 232.303 83.4357 232.786L83.0632 233.656C82.8909 234.058 82.8537 234.386 82.9514 234.642C83.0492 234.897 83.324 235.121 83.7758 235.315L83.4385 236.102C82.8509 235.85 82.3904 235.605 82.0569 235.366C81.7222 235.13 81.4853 234.901 81.3461 234.677C81.2058 234.456 81.1377 234.24 81.1418 234.029C81.1447 233.82 81.1892 233.615 81.2754 233.414L81.7653 232.27C81.8727 232.019 81.9329 231.799 81.9459 231.61C81.9601 231.418 81.9043 231.249 81.7785 231.103C81.6513 230.952 81.4336 230.811 81.1255 230.679L81.6607 229.43ZM83.7758 235.315L83.1315 236.819L81.7252 236.216L82.3695 234.712L83.7758 235.315Z" fill="#FF8A00"/>
<path d="M63.5481 225.681L64.0039 224.956C64.4176 225.216 64.7584 225.314 65.0263 225.251C65.2918 225.187 65.5409 224.969 65.7737 224.599L66.2771 223.798C66.5567 223.353 66.843 223.036 67.1359 222.848C67.4279 222.655 67.7288 222.561 68.0387 222.564C68.3461 222.566 68.6669 222.64 69.0011 222.787C69.3329 222.932 69.6816 223.119 70.0472 223.349L69.3239 224.5C69.0401 224.321 68.8014 224.223 68.6078 224.206C68.4133 224.184 68.2412 224.233 68.0915 224.354C67.9434 224.472 67.7968 224.647 67.6516 224.878L66.9895 225.931C66.8731 226.117 66.7298 226.27 66.5597 226.391C66.388 226.515 66.1715 226.582 65.9101 226.592C65.6472 226.604 65.3234 226.54 64.9389 226.399C64.5529 226.261 64.0893 226.021 63.5481 225.681ZM64.3081 232.48C63.9425 232.251 63.6225 232.018 63.3481 231.781C63.0714 231.544 62.8654 231.287 62.7303 231.011C62.5928 230.733 62.5473 230.421 62.594 230.074C62.6367 229.729 62.7979 229.333 63.0776 228.888L63.5787 228.091C63.8115 227.721 63.8995 227.402 63.8426 227.135C63.7834 226.866 63.5469 226.601 63.1332 226.341L63.589 225.616C64.1301 225.956 64.5476 226.269 64.8414 226.554C65.1337 226.842 65.332 227.106 65.4362 227.346C65.5388 227.588 65.5725 227.812 65.537 228.018C65.5001 228.227 65.4241 228.422 65.3092 228.605L64.6471 229.659C64.5005 229.892 64.406 230.101 64.3637 230.286C64.3199 230.473 64.3498 230.649 64.4536 230.815C64.5535 230.982 64.7453 231.155 65.0291 231.333L64.3081 232.48ZM63.1332 226.341L64.0039 224.956L65.2992 225.77L64.4284 227.156L63.1332 226.341Z" fill="#FF8A00"/>
<path d="M52.2428 217.19L51.6796 217.835C51.3093 217.512 50.988 217.362 50.7157 217.384C50.4434 217.407 50.1634 217.583 49.8757 217.912L49.2565 218.622C48.911 219.018 48.5799 219.287 48.2634 219.43C47.9429 219.572 47.631 219.619 47.3276 219.569C47.022 219.517 46.7156 219.393 46.4083 219.196C46.1009 219 45.7857 218.76 45.4625 218.478L46.3534 217.457C46.606 217.678 46.8276 217.813 47.0182 217.862C47.2048 217.912 47.3815 217.889 47.5481 217.793C47.7129 217.699 47.8858 217.548 48.067 217.341L48.8852 216.403C49.0271 216.241 49.1925 216.112 49.3813 216.016C49.5683 215.923 49.7926 215.891 50.0543 215.919C50.3141 215.95 50.6238 216.064 50.9836 216.261C51.3414 216.46 51.7611 216.769 52.2428 217.19ZM52.5539 210.352C52.8771 210.634 53.1569 210.914 53.3933 211.192C53.6296 211.47 53.7941 211.757 53.8867 212.052C53.9772 212.346 53.9734 212.662 53.8755 212.998C53.7774 213.331 53.5555 213.696 53.2099 214.092L52.5879 214.804C52.3003 215.134 52.1637 215.435 52.1782 215.708C52.1928 215.981 52.3852 216.279 52.7555 216.602L52.1923 217.248C51.7107 216.827 51.3479 216.452 51.104 216.123C50.8583 215.795 50.7035 215.503 50.6399 215.248C50.5743 214.995 50.576 214.768 50.645 214.568C50.712 214.37 50.8175 214.189 50.9613 214.024L51.7795 213.087C51.9588 212.881 52.0837 212.69 52.1543 212.514C52.2268 212.336 52.2257 212.158 52.1512 211.98C52.0764 211.798 51.9127 211.597 51.6601 211.376L52.5539 210.352ZM52.7555 216.602L51.6796 217.835L50.5269 216.829L51.6028 215.596L52.7555 216.602Z" fill="#FF8A00"/>
<path d="M36.4736 201.212L37.1304 200.662C37.444 201.037 37.738 201.235 38.0123 201.258C38.2848 201.278 38.5888 201.148 38.9243 200.867L39.6497 200.26C40.0527 199.922 40.4226 199.709 40.7592 199.62C41.0962 199.527 41.4115 199.53 41.7053 199.628C41.9972 199.725 42.2797 199.894 42.5526 200.136C42.8238 200.376 43.0979 200.661 43.3751 200.992L42.3327 201.865C42.1175 201.608 41.9206 201.441 41.7418 201.365C41.5634 201.284 41.3844 201.279 41.2049 201.347C41.0275 201.414 40.8343 201.535 40.6251 201.71L39.671 202.509C39.5032 202.649 39.3197 202.751 39.1206 202.814C38.9192 202.879 38.6926 202.876 38.4407 202.805C38.1867 202.736 37.8984 202.576 37.5759 202.323C37.2513 202.073 36.8839 201.702 36.4736 201.212ZM35.1045 207.915C34.8273 207.584 34.5945 207.264 34.4062 206.955C34.216 206.643 34.0991 206.336 34.0555 206.031C34.0101 205.725 34.0629 205.414 34.2139 205.098C34.3609 204.783 34.6359 204.456 35.0389 204.119L35.7611 203.514C36.0966 203.234 36.2784 202.957 36.3065 202.686C36.3329 202.412 36.1892 202.087 35.8756 201.713L36.5324 201.163C36.9427 201.653 37.2437 202.079 37.4354 202.441C37.625 202.805 37.7324 203.117 37.7577 203.377C37.7809 203.639 37.7439 203.863 37.6468 204.048C37.5475 204.235 37.4151 204.397 37.2496 204.536L36.2954 205.334C36.0841 205.511 35.9298 205.681 35.8327 205.844C35.7334 206.009 35.7076 206.186 35.7553 206.376C35.799 206.565 35.9284 206.788 36.1436 207.045L35.1045 207.915ZM35.8756 201.713L37.1304 200.662L38.1123 201.835L36.8575 202.886L35.8756 201.713Z" fill="#FF8A00"/>
<path d="M28.3297 189.654L27.5952 190.095C27.3423 189.673 27.0829 189.431 26.8168 189.369C26.5508 189.307 26.2302 189.388 25.8551 189.613L25.0476 190.098C24.597 190.368 24.1992 190.522 23.8542 190.56C23.5054 190.597 23.1943 190.546 22.9209 190.405C22.6461 190.262 22.3928 190.049 22.1608 189.768C21.9289 189.486 21.7026 189.161 21.4818 188.793L22.6437 188.096C22.8162 188.384 22.9856 188.58 23.1517 188.686C23.314 188.791 23.4891 188.823 23.6772 188.783C23.8628 188.745 24.0738 188.654 24.3101 188.513L25.377 187.872C25.5621 187.761 25.7592 187.689 25.9682 187.657C26.1748 187.625 26.3982 187.664 26.6384 187.771C26.8761 187.88 27.1358 188.084 27.4175 188.382C27.6967 188.682 28.0007 189.106 28.3297 189.654ZM30.7298 183.244C30.9505 183.611 31.1306 183.964 31.27 184.301C31.4093 184.638 31.4776 184.962 31.4747 185.271C31.4703 185.579 31.3697 185.878 31.1729 186.168C30.9771 186.455 30.6539 186.733 30.2032 187.004L29.3921 187.49C29.0169 187.716 28.7943 187.96 28.7242 188.224C28.654 188.488 28.7454 188.831 28.9983 189.252L28.2639 189.693C27.935 189.145 27.7052 188.677 27.5746 188.288C27.4415 187.901 27.384 187.576 27.402 187.313C27.4176 187.052 27.4889 186.837 27.6161 186.668C27.7408 186.5 27.8969 186.36 28.0845 186.247L29.1514 185.607C29.3853 185.467 29.5629 185.324 29.6842 185.178C29.8079 185.031 29.8617 184.861 29.8456 184.669C29.8305 184.472 29.7367 184.23 29.5642 183.943L30.7298 183.244ZM28.9983 189.252L27.5952 190.095L26.808 188.783L28.2111 187.941L28.9983 189.252Z" fill="#FF8A00"/>
<path d="M18.2421 169.599L19.0363 169.278C19.2194 169.731 19.438 170.01 19.6921 170.116C19.9452 170.219 20.2745 170.188 20.6802 170.025L21.5572 169.67C22.0445 169.473 22.462 169.384 22.8097 169.403C23.159 169.418 23.4582 169.518 23.7074 169.702C23.9555 169.883 24.1721 170.131 24.3574 170.446C24.5416 170.757 24.7146 171.113 24.8764 171.514L23.6161 172.023C23.4904 171.712 23.3543 171.493 23.2077 171.365C23.0627 171.234 22.8942 171.173 22.7022 171.184C22.5129 171.193 22.2918 171.248 22.0389 171.351L20.8853 171.817C20.6825 171.899 20.4766 171.939 20.2677 171.938C20.0561 171.938 19.8414 171.865 19.6236 171.72C19.403 171.576 19.1782 171.335 18.9491 170.995C18.7173 170.657 18.4817 170.192 18.2421 169.599ZM14.8768 175.555C14.715 175.155 14.5921 174.779 14.508 174.427C14.4228 174.072 14.4063 173.743 14.4585 173.44C14.5096 173.135 14.6555 172.855 14.8962 172.601C15.1332 172.346 15.4954 172.12 15.9826 171.923L16.8558 171.57C17.2614 171.406 17.5194 171.199 17.6298 170.95C17.7391 170.697 17.7023 170.344 17.5191 169.891L18.3133 169.57C18.5528 170.163 18.7081 170.661 18.7792 171.064C18.8477 171.468 18.8539 171.798 18.7978 172.054C18.7391 172.311 18.6352 172.512 18.4859 172.658C18.3339 172.805 18.1579 172.919 17.9577 173L16.8041 173.467C16.5486 173.57 16.3496 173.684 16.2071 173.809C16.0619 173.935 15.9828 174.096 15.9698 174.291C15.9531 174.485 16.0076 174.737 16.1332 175.048L14.8768 175.555ZM17.5191 169.891L19.0363 169.278L19.6096 170.696L18.0924 171.309L17.5191 169.891Z" fill="#FF8A00"/>
<path d="M14.05 156.095L13.2155 156.289C13.1046 155.81 12.9321 155.5 12.6982 155.359C12.4643 155.218 12.1342 155.197 11.708 155.295L10.7906 155.508C10.2786 155.627 9.8526 155.651 9.51269 155.581C9.16937 155.509 8.88933 155.364 8.67258 155.146C8.45518 154.925 8.27946 154.645 8.14542 154.306C8.01138 153.966 7.89594 153.588 7.79909 153.17L9.11922 152.864C9.1949 153.19 9.29552 153.43 9.42108 153.581C9.54323 153.731 9.69992 153.816 9.89116 153.835C10.0796 153.856 10.3081 153.835 10.5765 153.773L11.7887 153.492C11.9991 153.443 12.2087 153.435 12.4176 153.469C12.6238 153.502 12.8246 153.608 13.02 153.784C13.2126 153.961 13.3971 154.235 13.5733 154.605C13.7468 154.976 13.9057 155.473 14.05 156.095ZM18.3061 150.735C18.403 151.153 18.4658 151.543 18.4947 151.907C18.5236 152.271 18.489 152.6 18.3909 152.894C18.2921 153.185 18.1044 153.438 17.8278 153.654C17.5533 153.866 17.1601 154.032 16.6481 154.15L15.7265 154.364C15.3003 154.463 15.0132 154.627 14.8652 154.857C14.7172 155.086 14.6987 155.441 14.8097 155.919L13.9752 156.113C13.8309 155.49 13.7565 154.974 13.7518 154.564C13.7444 154.154 13.7897 153.827 13.8876 153.583C13.9828 153.339 14.1169 153.156 14.2899 153.035C14.4601 152.914 14.6518 152.828 14.8649 152.779L16.0771 152.498C16.3428 152.436 16.5557 152.355 16.716 152.254C16.879 152.152 16.9824 152.007 17.0263 151.819C17.0724 151.627 17.0575 151.368 16.9819 151.042L18.3061 150.735ZM14.8097 155.919L13.2155 156.289L12.8702 154.799L14.4643 154.429L14.8097 155.919Z" fill="#FF8A00"/>
<path d="M10.623 133.91L11.4774 133.849C11.5122 134.336 11.6343 134.669 11.8436 134.848C12.0526 135.024 12.3754 135.096 12.8118 135.065L13.7554 134.997C14.2796 134.96 14.7043 135.004 15.0293 135.129C15.357 135.25 15.6111 135.437 15.7914 135.689C15.9716 135.938 16.1014 136.241 16.181 136.597C16.2603 136.95 16.3154 137.342 16.3462 137.773L14.9902 137.87C14.9664 137.535 14.9043 137.285 14.8041 137.118C14.7066 136.949 14.5649 136.839 14.3791 136.79C14.1961 136.74 13.9686 136.725 13.6965 136.745L12.4554 136.833C12.2372 136.849 12.0289 136.824 11.8306 136.758C11.6294 136.693 11.4474 136.558 11.2847 136.353C11.1191 136.148 10.9795 135.849 10.8659 135.456C10.7496 135.063 10.6686 134.547 10.623 133.91ZM5.58809 138.542C5.55731 138.111 5.55608 137.715 5.58441 137.354C5.61253 136.99 5.69804 136.673 5.84093 136.4C5.98362 136.125 6.20849 135.904 6.51554 135.737C6.81955 135.567 7.23367 135.463 7.7579 135.426L8.69726 135.359C9.13365 135.328 9.44282 135.21 9.62478 135.006C9.80654 134.8 9.88 134.453 9.84517 133.965L10.6995 133.904C10.7451 134.542 10.7396 135.063 10.6832 135.469C10.6239 135.875 10.5283 136.191 10.3963 136.417C10.2615 136.643 10.1006 136.802 9.91357 136.895C9.72371 136.989 9.5211 137.043 9.30574 137.058L8.06459 137.147C7.78972 137.167 7.56526 137.214 7.39119 137.289C7.21429 137.364 7.08961 137.493 7.01715 137.675C6.94166 137.854 6.91586 138.111 6.93975 138.445L5.58809 138.542ZM9.84517 133.965L11.4774 133.849L11.5864 135.375L9.95421 135.491L9.84517 133.965Z" fill="#FF8A00"/>
<path d="M10.7894 119.771L9.93598 119.699C9.97774 119.209 9.90904 118.861 9.7299 118.655C9.55075 118.448 9.24322 118.327 8.8073 118.289L7.86895 118.209C7.34528 118.165 6.9325 118.057 6.63061 117.886C6.32613 117.711 6.10432 117.487 5.96517 117.213C5.82627 116.936 5.74526 116.616 5.72213 116.251C5.699 115.887 5.70565 115.492 5.7421 115.064L7.09231 115.179C7.06383 115.513 7.08599 115.772 7.15877 115.955C7.22897 116.135 7.35199 116.264 7.52784 116.341C7.70086 116.419 7.92466 116.469 8.19923 116.493L9.43905 116.598C9.65418 116.617 9.85602 116.674 10.0446 116.77C10.2303 116.865 10.389 117.027 10.5207 117.255C10.6495 117.483 10.7408 117.8 10.7945 118.207C10.8454 118.613 10.8437 119.135 10.7894 119.771ZM16.4886 115.981C16.4522 116.408 16.3917 116.799 16.3073 117.154C16.2229 117.509 16.0888 117.811 15.905 118.061C15.7214 118.307 15.4648 118.491 15.1353 118.611C14.8088 118.728 14.3837 118.765 13.86 118.72L12.9174 118.64C12.4815 118.603 12.1578 118.671 11.9463 118.844C11.7348 119.017 11.6082 119.348 11.5664 119.838L10.713 119.765C10.7673 119.128 10.8553 118.614 10.9771 118.222C11.0961 117.83 11.2397 117.533 11.4081 117.331C11.5736 117.128 11.7574 116.996 11.9595 116.933C12.1587 116.87 12.3673 116.848 12.5853 116.867L13.8251 116.972C14.0969 116.995 14.3246 116.984 14.5082 116.936C14.6947 116.89 14.8377 116.784 14.9374 116.618C15.0401 116.45 15.1057 116.199 15.1342 115.865L16.4886 115.981ZM11.5664 119.838L9.93598 119.699L10.0659 118.174L11.6964 118.313L11.5664 119.838Z" fill="#FF8A00"/>
<path d="M14.3556 97.6075L15.1873 97.8123C15.0704 98.2868 15.0841 98.6413 15.2282 98.8757C15.373 99.1074 15.6579 99.2755 16.0827 99.3802L17.0012 99.6064C17.5116 99.732 17.9022 99.9043 18.173 100.123C18.4473 100.34 18.6315 100.596 18.7256 100.891C18.8203 101.184 18.8508 101.512 18.8169 101.875C18.7837 102.235 18.7155 102.625 18.6123 103.044L17.2923 102.719C17.3725 102.394 17.3905 102.136 17.3464 101.947C17.3058 101.756 17.2047 101.608 17.0431 101.504C16.8842 101.4 16.6724 101.316 16.4076 101.251L15.1994 100.953C14.987 100.901 14.7965 100.813 14.6279 100.69C14.4566 100.566 14.325 100.381 14.2332 100.136C14.1387 99.8903 14.0979 99.5629 14.1109 99.1535C14.1212 98.7435 14.2027 98.2282 14.3556 97.6075ZM8.13961 100.465C8.24287 100.046 8.3635 99.6692 8.5015 99.3345C8.64018 98.9971 8.81939 98.7209 9.03912 98.5058C9.25953 98.288 9.54153 98.1468 9.88512 98.0822C10.2266 98.0141 10.6526 98.043 11.1629 98.1686L12.0773 98.3938C12.5021 98.4984 12.8325 98.4818 13.0683 98.3438C13.3048 98.2031 13.4815 97.8955 13.5984 97.4211L14.4301 97.6259C14.2772 98.2465 14.1115 98.7411 13.933 99.1097C13.7517 99.4776 13.5635 99.7487 13.3684 99.923C13.1706 100.097 12.9684 100.199 12.7618 100.23C12.5524 100.26 12.3429 100.25 12.1333 100.198L10.9251 99.9006C10.6575 99.8348 10.4293 99.8108 10.2406 99.8286C10.0491 99.8459 9.89095 99.9298 9.76608 100.08C9.63913 100.228 9.53558 100.464 9.45542 100.79L8.13961 100.465ZM13.5984 97.4211L15.1873 97.8123L14.8215 99.2978L13.2326 98.9065L13.5984 97.4211Z" fill="#FF8A00"/>
<path d="M18.8644 84.2065L18.0747 83.8747C18.2652 83.4216 18.3069 83.0693 18.1999 82.8179C18.0929 82.5665 17.8378 82.356 17.4345 82.1865L16.5663 81.8216C16.0817 81.618 15.7222 81.3883 15.4876 81.1326C15.2515 80.8731 15.1095 80.5915 15.0614 80.2879C15.0145 79.9815 15.0361 79.6516 15.1261 79.2981C15.2161 78.9446 15.3442 78.5701 15.5104 78.1746L16.7597 78.6996C16.6298 79.0087 16.5713 79.2614 16.5843 79.4579C16.5957 79.6507 16.6731 79.8111 16.8165 79.9392C16.9573 80.0661 17.1547 80.183 17.4088 80.2898L18.5559 80.7719C18.755 80.8555 18.9294 80.972 19.0793 81.1213C19.2266 81.2694 19.3278 81.4722 19.383 81.7296C19.4355 81.9859 19.4248 82.3157 19.3508 82.7191C19.2742 83.1214 19.112 83.6172 18.8644 84.2065ZM25.4536 82.3533C25.2874 82.7487 25.1095 83.1023 24.9199 83.414C24.7304 83.7257 24.5098 83.972 24.2581 84.1528C24.0076 84.331 23.707 84.4266 23.3565 84.4395C23.0096 84.4509 22.5939 84.3548 22.1094 84.1512L21.2373 83.7847C20.834 83.6152 20.5051 83.5802 20.2506 83.6797C19.9962 83.7792 19.7737 84.0555 19.5833 84.5086L18.7937 84.1768C19.0413 83.5875 19.2833 83.1253 19.5197 82.7901C19.7535 82.4539 19.9816 82.2154 20.204 82.0747C20.4239 81.9328 20.6396 81.8632 20.8511 81.8659C21.06 81.8674 21.2653 81.9105 21.467 81.9953L22.6141 82.4773C22.8655 82.583 23.0859 82.6417 23.2751 82.6534C23.4669 82.6662 23.6357 82.6093 23.7814 82.4825C23.9308 82.3543 24.0705 82.1356 24.2003 81.8266L25.4536 82.3533ZM19.5833 84.5086L18.0747 83.8747L18.6675 82.4643L20.176 83.0983L19.5833 84.5086Z" fill="#FF8A00"/>
<path d="M29.0776 64.2154L29.8059 64.6662C29.5487 65.0816 29.4527 65.4231 29.5177 65.6905C29.5842 65.9555 29.8034 66.2032 30.1754 66.4334L30.9798 66.9313C31.4267 67.2079 31.7454 67.492 31.9358 67.7836C32.13 68.0743 32.2265 68.3745 32.2252 68.6844C32.2253 68.9919 32.1534 69.3132 32.0094 69.6484C31.8669 69.9812 31.682 70.3311 31.4547 70.6983L30.2989 69.9829C30.4753 69.6978 30.5717 69.4585 30.588 69.2648C30.6082 69.0701 30.5575 68.8984 30.4358 68.7496C30.3165 68.6022 30.1409 68.4568 29.909 68.3133L28.8509 67.6584C28.6649 67.5432 28.5107 67.401 28.3883 67.2317C28.2635 67.0609 28.1951 66.8448 28.1832 66.5835C28.1688 66.3207 28.2307 65.9965 28.3691 65.6111C28.505 65.2241 28.7412 64.7589 29.0776 64.2154ZM22.2838 65.0219C22.5111 64.6548 22.7419 64.3332 22.9761 64.0572C23.2119 63.7788 23.4674 63.5712 23.7427 63.4341C24.0194 63.2947 24.3312 63.2471 24.678 63.2914C25.0239 63.3317 25.4203 63.4902 25.8672 63.7668L26.6679 64.2625C27.0399 64.4927 27.3594 64.5785 27.6262 64.5198C27.8946 64.4587 28.1573 64.2204 28.4145 63.8049L29.1428 64.2557C28.8064 64.7993 28.4966 65.2189 28.2133 65.5146C27.9276 65.8089 27.6651 66.0089 27.4259 66.1148C27.1842 66.2191 26.9603 66.2543 26.7542 66.2202C26.5456 66.1847 26.3496 66.1101 26.166 65.9965L25.1079 65.3416C24.8736 65.1966 24.6639 65.1036 24.4788 65.0625C24.2913 65.02 24.115 65.0511 23.9498 65.1561C23.7838 65.2571 23.6125 65.4501 23.4361 65.7351L22.2838 65.0219ZM28.4145 63.8049L29.8059 64.6662L29.0008 65.967L27.6094 65.1058L28.4145 63.8049Z" fill="#FF8A00"/>
<path d="M37.4913 52.852L36.8421 52.2932C37.1627 51.9207 37.3108 51.5984 37.2864 51.3263C37.2619 51.0541 37.0839 50.7754 36.7523 50.49L36.0385 49.8757C35.6402 49.5328 35.3687 49.2036 35.2242 48.8881C35.0794 48.5686 35.0309 48.257 35.0787 47.9532C35.1283 47.6474 35.2503 47.3401 35.4447 47.0314C35.6392 46.7227 35.8763 46.4058 36.1561 46.0807L37.1832 46.9646C36.9646 47.2187 36.8312 47.4412 36.783 47.6322C36.7346 47.8191 36.7589 47.9956 36.8559 48.1616C36.9508 48.3257 37.1027 48.4976 37.3115 48.6774L38.2547 49.4891C38.4183 49.6299 38.5485 49.7944 38.6452 49.9826C38.7397 50.1689 38.7736 50.393 38.7469 50.6548C38.718 50.9148 38.6063 51.2254 38.4118 51.5864C38.2151 51.9456 37.9082 52.3675 37.4913 52.852ZM44.331 53.1162C44.0512 53.4414 43.7731 53.7231 43.4969 53.9613C43.2206 54.1996 42.9349 54.366 42.6399 54.4606C42.3466 54.5531 42.0313 54.5515 41.6937 54.456C41.3602 54.3601 40.9943 54.1407 40.5959 53.7979L39.8789 53.1808C39.5473 52.8954 39.2451 52.7609 38.9724 52.7773C38.6996 52.7937 38.403 52.9882 38.0824 53.3607L37.4331 52.8019C37.8501 52.3175 38.2226 51.9521 38.5507 51.706C38.8766 51.458 39.167 51.3012 39.4219 51.2358C39.6748 51.1685 39.9014 51.1687 40.1019 51.2362C40.3002 51.302 40.4822 51.4062 40.648 51.5489L41.5912 52.3606C41.7979 52.5385 41.9894 52.6621 42.1659 52.7315C42.3444 52.8027 42.5226 52.8004 42.7002 52.7247C42.8818 52.6486 43.082 52.4836 43.3007 52.2295L44.331 53.1162ZM38.0824 53.3607L36.8421 52.2932L37.84 51.1337L39.0803 52.2011L38.0824 53.3607Z" fill="#FF8A00"/>
<path d="M53.3605 36.9735L53.9147 37.6266C53.5422 37.9428 53.3457 38.2381 53.3252 38.5126C53.307 38.7852 53.4394 39.0883 53.7225 39.4218L54.3347 40.1431C54.6748 40.5438 54.8905 40.9121 54.9819 41.2481C55.0774 41.5845 55.0768 41.8999 54.9801 42.1943C54.8856 42.4869 54.7183 42.7705 54.4782 43.0451C54.2402 43.3179 53.9566 43.594 53.6274 43.8734L52.7477 42.837C53.0033 42.6201 53.1687 42.422 53.2438 42.2427C53.3229 42.0637 53.3275 41.8847 53.2575 41.7057C53.1893 41.5288 53.067 41.3364 52.8905 41.1284L52.0853 40.1798C51.9438 40.013 51.8408 39.8302 51.7765 39.6315C51.7103 39.4305 51.7117 39.2039 51.7807 38.9516C51.8479 38.697 52.0066 38.4077 52.2568 38.0835C52.5052 37.7572 52.8731 37.3872 53.3605 36.9735ZM46.6481 35.6504C46.9773 35.371 47.2959 35.1361 47.6037 34.9456C47.9137 34.7533 48.2207 34.6343 48.5248 34.5886C48.831 34.5411 49.1423 34.5918 49.4586 34.7406C49.7753 34.8854 50.1037 35.1582 50.4438 35.5589L51.0532 36.2769C51.3363 36.6104 51.6139 36.7903 51.8858 36.8166C52.16 36.8411 52.4833 36.6952 52.8558 36.379L53.4101 37.032C52.9228 37.4457 52.4988 37.7496 52.1383 37.9438C51.7759 38.1359 51.4646 38.2454 51.2044 38.2725C50.9423 38.2975 50.7185 38.262 50.5328 38.1662C50.3453 38.0682 50.1817 37.9369 50.042 37.7723L49.2368 36.8236C49.0585 36.6135 48.8876 36.4605 48.7242 36.3645C48.5588 36.2663 48.3815 36.2417 48.192 36.2907C48.0029 36.3357 47.7806 36.4667 47.525 36.6836L46.6481 35.6504ZM52.8558 36.379L53.9147 37.6266L52.7484 38.6165L51.6895 37.3689L52.8558 36.379Z" fill="#FF8A00"/>
<path d="M64.8626 28.7505L64.4168 28.0191C64.8364 27.7633 65.0765 27.5022 65.137 27.2358C65.1976 26.9693 65.114 26.6493 64.8863 26.2757L64.3961 25.4716C64.1226 25.0228 63.9656 24.6261 63.9252 24.2814C63.8858 23.9328 63.9355 23.6214 64.0744 23.3471C64.2157 23.0713 64.4264 22.8165 64.7064 22.5826C64.9864 22.3487 65.3095 22.1202 65.6758 21.8969L66.3811 23.054C66.0948 23.2285 65.8994 23.3992 65.7948 23.566C65.6912 23.729 65.66 23.9044 65.7013 24.0922C65.7411 24.2775 65.8327 24.4878 65.9761 24.7232L66.6237 25.7857C66.7361 25.97 66.8093 26.1666 66.8434 26.3754C66.876 26.5817 66.8393 26.8054 66.7333 27.0463C66.6259 27.2848 66.424 27.5459 66.1278 27.8296C65.8301 28.1109 65.4084 28.4178 64.8626 28.7505ZM71.2891 31.1066C70.9228 31.3298 70.5716 31.5123 70.2354 31.654C69.8992 31.7957 69.5762 31.8661 69.2663 31.8654C68.9589 31.8631 68.6593 31.7646 68.3675 31.5698C68.0797 31.3759 67.799 31.0546 67.5255 30.6058L67.0331 29.798C66.8054 29.4245 66.5593 29.2035 66.2948 29.1352C66.0302 29.0669 65.6881 29.1606 65.2684 29.4164L64.8226 28.685C65.3685 28.3523 65.8353 28.1194 66.2232 27.9861C66.6096 27.8504 66.9341 27.7906 67.1969 27.8068C67.4581 27.8206 67.6737 27.8905 67.8436 28.0165C68.0121 28.14 68.1533 28.2952 68.2671 28.482L68.9147 29.5445C69.0567 29.7774 69.2009 29.954 69.3474 30.0743C69.4954 30.197 69.6656 30.2496 69.8579 30.2322C70.0541 30.2158 70.2954 30.1203 70.5816 29.9458L71.2891 31.1066ZM65.2684 29.4164L64.4168 28.0191L65.7231 27.2229L66.5747 28.6202L65.2684 29.4164Z" fill="#FF8A00"/>
<path d="M84.8477 18.5256L85.1742 19.3175C84.7224 19.5037 84.4446 19.7243 84.3407 19.9791C84.2394 20.2329 84.2721 20.562 84.4388 20.9665L84.7994 21.8411C84.9997 22.327 85.0916 22.7439 85.0752 23.0917C85.0625 23.4411 84.9649 23.741 84.7823 23.9914C84.6024 24.2407 84.3559 24.4591 84.0429 24.6465C83.7326 24.8328 83.3778 25.0083 82.9785 25.1728L82.4605 23.916C82.7704 23.7883 82.9887 23.6507 83.1154 23.5032C83.2457 23.3573 83.3052 23.1884 83.2937 22.9965C83.2832 22.8072 83.226 22.5864 83.1221 22.3343L82.6479 21.1839C82.5645 20.9816 82.5228 20.7761 82.5227 20.5671C82.5216 20.3556 82.5927 20.1404 82.736 19.9215C82.8782 19.7001 83.1183 19.4736 83.4561 19.2421C83.7929 19.0081 84.2568 18.7692 84.8477 18.5256ZM78.8682 15.2012C79.2674 15.0367 79.6428 14.9111 79.9943 14.8246C80.3485 14.737 80.6772 14.7183 80.9806 14.7684C81.2865 14.8174 81.5671 14.9614 81.8223 15.2004C82.0791 15.4356 82.3076 15.7962 82.5079 16.2821L82.8668 17.1528C83.0335 17.5573 83.2423 17.8139 83.4929 17.9225C83.7462 18.0302 84.0988 17.9909 84.5505 17.8046L84.877 18.5965C84.286 18.8401 83.7891 18.9989 83.3863 19.0727C82.9824 19.144 82.6525 19.1524 82.3966 19.0981C82.1396 19.0412 81.9375 18.9386 81.7903 18.7903C81.6421 18.6394 81.5268 18.4641 81.4445 18.2645L80.9703 17.1141C80.8653 16.8593 80.7498 16.6611 80.6238 16.5195C80.4967 16.3752 80.3355 16.2972 80.1402 16.2855C79.9464 16.2702 79.6946 16.3263 79.3846 16.4541L78.8682 15.2012ZM84.5505 17.8046L85.1742 19.3175L83.7598 19.9005L83.1362 18.3876L84.5505 17.8046Z" fill="#FF8A00"/>
<path d="M98.3221 14.2409L98.123 13.4078C98.601 13.2936 98.9098 13.119 99.0493 12.8841C99.1889 12.6492 99.2078 12.319 99.1061 11.8935L98.8872 10.9775C98.7651 10.4663 98.7378 10.0406 98.8054 9.70017C98.8751 9.35636 99.0183 9.07534 99.2348 8.85709C99.4542 8.63818 99.733 8.46054 100.071 8.32418C100.41 8.18781 100.788 8.06978 101.205 7.97006L101.52 9.28806C101.194 9.36598 100.955 9.46824 100.804 9.59484C100.656 9.71801 100.572 9.87528 100.554 10.0666C100.534 10.2553 100.557 10.4836 100.621 10.7516L100.91 11.9618C100.96 12.1718 100.969 12.3814 100.938 12.5905C100.905 12.7969 100.801 12.9984 100.626 13.195C100.451 13.3889 100.178 13.5752 99.8093 13.754C99.4395 13.93 98.9438 14.0923 98.3221 14.2409ZM103.712 18.4602C103.295 18.5599 102.904 18.6254 102.541 18.6568C102.177 18.6881 101.848 18.6558 101.554 18.5597C101.262 18.463 101.007 18.277 100.789 18.0019C100.575 17.7289 100.407 17.3368 100.285 16.8256L100.065 15.9055C99.9633 15.48 99.7971 15.194 99.5664 15.0476C99.3357 14.9012 98.9813 14.8851 98.5033 14.9993L98.3042 14.1663C98.9259 14.0177 99.4418 13.9397 99.8519 13.9322C100.261 13.922 100.588 13.965 100.833 14.0613C101.078 14.1548 101.261 14.2876 101.384 14.4598C101.507 14.6292 101.593 14.8202 101.644 15.033L101.933 16.2432C101.997 16.5085 102.08 16.7209 102.182 16.8804C102.285 17.0428 102.431 17.1452 102.619 17.1878C102.811 17.2325 103.07 17.2159 103.396 17.138L103.712 18.4602ZM98.5033 14.9993L98.123 13.4078L99.6109 13.0522L99.9913 14.6437L98.5033 14.9993Z" fill="#FF8A00"/>
<path d="M120.484 10.6618L120.551 11.5157C120.064 11.5539 119.731 11.6782 119.554 11.8887C119.38 12.099 119.31 12.4222 119.344 12.8584L119.418 13.8015C119.459 14.3255 119.418 14.7504 119.295 15.0763C119.176 15.4049 118.99 15.6602 118.74 15.8423C118.492 16.0241 118.19 16.156 117.835 16.238C117.482 16.3198 117.09 16.3776 116.66 16.4113L116.554 15.0561C116.888 15.0299 117.138 14.9661 117.304 14.8648C117.473 14.7661 117.581 14.6236 117.629 14.4375C117.678 14.2542 117.691 14.0266 117.67 13.7547L117.573 12.5142C117.556 12.2961 117.579 12.0876 117.643 11.8888C117.707 11.6872 117.841 11.5043 118.045 11.3402C118.249 11.1732 118.547 11.0316 118.939 10.9153C119.332 10.7962 119.847 10.7117 120.484 10.6618ZM115.817 5.65874C116.248 5.62501 116.644 5.62106 117.005 5.64691C117.369 5.67254 117.687 5.75587 117.96 5.89689C118.237 6.03768 118.459 6.26103 118.628 6.56692C118.8 6.86976 118.907 7.28316 118.948 7.80712L119.021 8.746C119.056 9.18217 119.175 9.49053 119.38 9.67108C119.588 9.85141 119.936 9.92249 120.423 9.88432L120.49 10.7382C119.853 10.7882 119.331 10.7863 118.925 10.7326C118.519 10.6761 118.202 10.5827 117.975 10.4522C117.748 10.319 117.588 10.1592 117.493 9.97282C117.399 9.78361 117.343 9.58138 117.326 9.36613L117.229 8.12562C117.207 7.85089 117.158 7.62675 117.082 7.4532C117.006 7.27682 116.876 7.15303 116.694 7.08182C116.514 7.00756 116.257 6.98352 115.923 7.00971L115.817 5.65874ZM120.423 9.88432L120.551 11.5157L119.026 11.6352L118.898 10.0038L120.423 9.88432Z" fill="#FF8A00"/>
<path d="M134.623 10.7311L134.69 9.87723C135.18 9.91562 135.527 9.84454 135.732 9.66398C135.937 9.48343 136.057 9.17507 136.091 8.73891L136.165 7.80002C136.206 7.27606 136.311 6.86255 136.48 6.55949C136.652 6.25382 136.875 6.03048 137.148 5.88946C137.424 5.74866 137.744 5.66545 138.108 5.63982C138.472 5.61419 138.868 5.61813 139.295 5.65164L139.189 7.00262C138.855 6.97643 138.597 7.00035 138.414 7.07439C138.235 7.14582 138.107 7.26973 138.031 7.44611C137.954 7.61966 137.905 7.84379 137.884 8.11852L137.787 9.35904C137.77 9.57429 137.714 9.77652 137.619 9.96572C137.525 10.1521 137.364 10.3119 137.137 10.4452C136.91 10.5756 136.594 10.669 136.188 10.7255C135.782 10.7792 135.26 10.7811 134.623 10.7311ZM138.453 16.4042C138.025 16.3707 137.634 16.3129 137.278 16.2309C136.923 16.1489 136.619 16.0169 136.369 15.8348C136.121 15.653 135.936 15.3977 135.813 15.0689C135.693 14.7432 135.654 14.3184 135.695 13.7944L135.769 12.8513C135.803 12.4151 135.733 12.0919 135.559 11.8816C135.384 11.6713 135.052 11.547 134.562 11.5086L134.629 10.6547C135.266 10.7046 135.781 10.7891 136.173 10.9082C136.566 11.0245 136.864 11.1661 137.068 11.3331C137.271 11.4972 137.405 11.6801 137.469 11.8817C137.533 12.0805 137.557 12.289 137.54 12.5071L137.443 13.7476C137.421 14.0195 137.435 14.2471 137.483 14.4304C137.531 14.6165 137.638 14.7589 137.805 14.8574C137.973 14.9589 138.225 15.0228 138.559 15.049L138.453 16.4042ZM134.562 11.5086L134.69 9.87723L136.215 9.99673L136.087 11.6281L134.562 11.5086Z" fill="#FF8A00"/>
<path d="M156.811 14.1451L156.612 14.9782C156.136 14.8646 155.782 14.8807 155.549 15.0265C155.318 15.1729 155.152 15.4588 155.05 15.8844L154.83 16.8045C154.708 17.3156 154.538 17.7074 154.321 17.9798C154.106 18.2556 153.852 18.4415 153.557 18.5376C153.265 18.6343 152.938 18.667 152.574 18.6356C152.213 18.6049 151.823 18.5394 151.403 18.439L151.719 17.1169C152.045 17.1948 152.303 17.2111 152.492 17.1657C152.683 17.1238 152.83 17.0216 152.933 16.8593C153.035 16.6998 153.118 16.4874 153.182 16.2221L153.471 15.0119C153.522 14.7991 153.608 14.608 153.731 14.4386C153.854 14.2665 154.037 14.1336 154.281 14.0401C154.526 13.9439 154.854 13.9009 155.263 13.9111C155.673 13.9185 156.189 13.9966 156.811 14.1451ZM153.91 7.94894C154.33 8.04931 154.708 8.16735 155.044 8.30305C155.382 8.43942 155.659 8.61672 155.876 8.83497C156.095 9.05388 156.238 9.33491 156.305 9.67805C156.376 10.0191 156.35 10.4452 156.228 10.9564L156.009 11.8723C155.907 12.2979 155.926 12.6281 156.066 12.863C156.208 13.0985 156.517 13.2731 156.992 13.3867L156.793 14.2197C156.171 14.0712 155.675 13.9089 155.306 13.7329C154.937 13.5541 154.664 13.3678 154.488 13.1739C154.313 12.9773 154.21 12.7758 154.177 12.5694C154.145 12.3603 154.155 12.1507 154.205 11.9407L154.494 10.7305C154.558 10.4624 154.581 10.2341 154.561 10.0455C154.543 9.85416 154.458 9.69656 154.306 9.57272C154.158 9.44679 153.921 9.34486 153.595 9.26693L153.91 7.94894ZM156.992 13.3867L156.612 14.9782L155.124 14.6226L155.504 13.0311L156.992 13.3867Z" fill="#FF8A00"/>
<path d="M170.242 18.5619L170.569 17.77C171.023 17.9573 171.376 17.9966 171.626 17.8879C171.877 17.7792 172.086 17.5226 172.253 17.1181L172.611 16.2475C172.812 15.7615 173.039 15.4004 173.293 15.1641C173.551 14.9262 173.831 14.7822 174.135 14.7321C174.441 14.6831 174.771 14.7024 175.125 14.79C175.479 14.8776 175.855 15.0031 176.251 15.1666L175.735 16.4195C175.425 16.2917 175.172 16.235 174.975 16.2493C174.782 16.262 174.623 16.3405 174.496 16.4848C174.37 16.6265 174.254 16.8247 174.149 17.0795L173.675 18.2299C173.593 18.4295 173.477 18.6048 173.329 18.7557C173.182 18.904 172.98 19.0066 172.723 19.0635C172.467 19.1178 172.137 19.1093 171.733 19.0381C171.33 18.9642 170.833 18.8055 170.242 18.5619ZM172.141 25.1382C171.744 24.9747 171.389 24.7993 171.076 24.6119C170.763 24.4245 170.516 24.2056 170.333 23.9552C170.153 23.7058 170.056 23.4059 170.04 23.0555C170.026 22.7087 170.12 22.2924 170.32 21.8065L170.68 20.9318C170.847 20.5274 170.88 20.1982 170.779 19.9445C170.677 19.6907 170.4 19.4702 169.945 19.2829L170.272 18.491C170.863 18.7346 171.326 18.9734 171.663 19.2075C172.001 19.4389 172.241 19.6654 172.383 19.8869C172.527 20.1058 172.598 20.321 172.597 20.5325C172.597 20.7414 172.555 20.947 172.471 21.1492L171.997 22.2997C171.893 22.5518 171.836 22.7725 171.826 22.9618C171.814 23.1537 171.872 23.3221 172 23.4669C172.129 23.6155 172.349 23.7536 172.659 23.8814L172.141 25.1382ZM169.945 19.2829L170.569 17.77L171.983 18.353L171.36 19.8659L169.945 19.2829Z" fill="#FF8A00"/>
<path d="M190.303 28.6377L189.857 29.3691C189.44 29.1148 189.098 29.021 188.831 29.0879C188.566 29.1562 188.32 29.3771 188.093 29.7507L187.6 30.5585C187.327 31.0073 187.045 31.3279 186.755 31.5203C186.465 31.7165 186.166 31.8151 185.856 31.8158C185.548 31.8181 185.227 31.7484 184.89 31.6067C184.557 31.4665 184.205 31.284 183.837 31.0593L184.544 29.8985C184.83 30.073 185.07 30.1677 185.264 30.1827C185.459 30.2016 185.63 30.1497 185.778 30.0269C185.925 29.9066 186.069 29.7301 186.211 29.4972L186.859 28.4347C186.972 28.2479 187.114 28.0927 187.282 27.9691C187.452 27.8432 187.668 27.7733 187.929 27.7595C188.192 27.7433 188.516 27.8031 188.903 27.9388C189.29 28.072 189.757 28.305 190.303 28.6377ZM189.45 21.8496C189.819 22.0743 190.142 22.3029 190.419 22.5353C190.699 22.7691 190.909 23.0232 191.048 23.2975C191.189 23.5733 191.239 23.8847 191.197 24.2318C191.159 24.578 191.003 24.9755 190.73 25.4242L190.239 26.2284C190.012 26.602 189.928 26.922 189.989 27.1884C190.052 27.4564 190.292 27.7175 190.709 27.9718L190.263 28.7032C189.717 28.3705 189.296 28.0635 188.998 27.7823C188.702 27.4986 188.5 27.2375 188.392 26.999C188.286 26.7581 188.25 26.5344 188.282 26.3281C188.316 26.1193 188.39 25.9227 188.502 25.7384L189.15 24.6758C189.293 24.4405 189.385 24.2302 189.424 24.0448C189.466 23.8571 189.433 23.681 189.327 23.5165C189.225 23.3511 189.031 23.1812 188.745 23.0067L189.45 21.8496ZM190.709 27.9718L189.857 29.3691L188.551 28.5729L189.403 27.1756L190.709 27.9718Z" fill="#FF8A00"/>
<path d="M201.724 36.9732L202.278 36.3202C202.653 36.6382 202.976 36.7841 203.248 36.7578C203.52 36.7315 203.798 36.5516 204.081 36.2181L204.69 35.5001C205.03 35.0994 205.358 34.8257 205.672 34.679C205.991 34.532 206.302 34.4814 206.606 34.527C206.912 34.5745 207.22 34.6945 207.53 34.8868C207.84 35.0791 208.159 35.314 208.486 35.5916L207.609 36.6248C207.353 36.4079 207.13 36.276 206.939 36.2291C206.751 36.182 206.575 36.2075 206.41 36.3057C206.246 36.4017 206.076 36.5547 205.897 36.7648L205.092 37.7135C204.952 37.8781 204.789 38.0094 204.601 38.1074C204.416 38.2032 204.192 38.2386 203.93 38.2137C203.669 38.1866 203.358 38.0771 202.996 37.885C202.635 37.6908 202.211 37.3868 201.724 36.9732ZM201.507 43.8146C201.18 43.537 200.896 43.2609 200.656 42.9863C200.416 42.7117 200.247 42.4271 200.151 42.1327C200.056 41.8401 200.056 41.5247 200.149 41.1866C200.242 40.8524 200.459 40.4849 200.799 40.0843L201.412 39.363C201.695 39.0294 201.827 38.7264 201.809 38.4537C201.791 38.1811 201.594 37.8858 201.219 37.5678L201.774 36.9147C202.261 37.3284 202.629 37.6983 202.877 38.0247C203.127 38.3489 203.286 38.6382 203.353 38.8927C203.422 39.1451 203.424 39.3717 203.358 39.5726C203.293 39.7714 203.19 39.9542 203.049 40.1209L202.244 41.0696C202.067 41.2775 201.945 41.47 201.877 41.6469C201.807 41.8259 201.81 42.004 201.887 42.1811C201.964 42.3622 202.131 42.5613 202.386 42.7782L201.507 43.8146ZM201.219 37.5678L202.278 36.3202L203.445 37.3101L202.386 38.5577L201.219 37.5678Z" fill="#FF8A00"/>
<path d="M217.711 52.733L217.062 53.2918C216.743 52.9214 216.446 52.727 216.172 52.7084C215.899 52.692 215.597 52.8265 215.265 53.1119L214.548 53.729C214.15 54.0718 213.783 54.2901 213.448 54.3838C213.112 54.4816 212.797 54.4831 212.501 54.3885C212.208 54.296 211.923 54.1307 211.647 53.8924C211.373 53.6563 211.095 53.3746 210.813 53.0473L211.843 52.1606C212.062 52.4147 212.261 52.5787 212.441 52.6526C212.621 52.7305 212.8 52.7338 212.978 52.6626C213.155 52.5932 213.346 52.4696 213.553 52.2917L214.496 51.48C214.662 51.3373 214.844 51.2331 215.042 51.1673C215.243 51.0998 215.469 51.0996 215.722 51.1669C215.977 51.2323 216.268 51.3891 216.593 51.6371C216.921 51.8832 217.294 52.2486 217.711 52.733ZM218.988 46.0118C219.27 46.3391 219.507 46.656 219.699 46.9625C219.894 47.2712 220.015 47.5774 220.063 47.8811C220.112 48.187 220.064 48.4986 219.917 48.816C219.774 49.1337 219.504 49.4639 219.106 49.8068L218.392 50.4211C218.06 50.7065 217.882 50.9852 217.858 51.2574C217.835 51.5317 217.983 51.854 218.302 52.2243L217.653 52.7831C217.236 52.2986 216.929 51.8767 216.732 51.5175C216.538 51.1565 216.426 50.8459 216.397 50.5859C216.37 50.3241 216.404 50.1 216.499 49.9137C216.596 49.7255 216.726 49.561 216.889 49.4202L217.833 48.6085C218.041 48.4287 218.193 48.2568 218.288 48.0927C218.385 47.9267 218.409 47.7492 218.358 47.5601C218.312 47.3713 218.179 47.1498 217.961 46.8957L218.988 46.0118ZM218.302 52.2243L217.062 53.2918L216.064 52.1322L217.304 51.0648L218.302 52.2243Z" fill="#FF8A00"/>
<path d="M226.013 64.1784L226.741 63.7277C227 64.1456 227.262 64.3838 227.529 64.4425C227.796 64.5012 228.116 64.4154 228.488 64.1852L229.288 63.6895C229.735 63.4129 230.131 63.2532 230.475 63.2105C230.824 63.1686 231.135 63.2162 231.411 63.3532C231.687 63.4926 231.944 63.7016 232.179 63.9799C232.415 64.2583 232.646 64.5799 232.872 64.9446L231.719 65.6578C231.543 65.3728 231.371 65.1785 231.203 65.0751C231.04 64.9726 230.864 64.9427 230.677 64.9852C230.492 65.0263 230.282 65.1193 230.048 65.2643L228.99 65.9192C228.806 66.0328 228.61 66.1074 228.401 66.1429C228.195 66.177 227.971 66.1418 227.73 66.0375C227.49 65.9316 227.228 65.7316 226.942 65.4373C226.659 65.1416 226.349 64.722 226.013 64.1784ZM223.701 70.621C223.475 70.2562 223.29 69.9063 223.146 69.5711C223.002 69.2359 222.929 68.9134 222.928 68.6035C222.928 68.296 223.025 67.9957 223.218 67.7027C223.409 67.4135 223.729 67.1306 224.176 66.854L224.98 66.3561C225.352 66.1259 225.571 65.8783 225.638 65.6132C225.704 65.3482 225.608 65.0068 225.35 64.5889L226.078 64.1381C226.414 64.6816 226.651 65.1468 226.786 65.5338C226.925 65.9192 226.987 66.2434 226.972 66.5062C226.96 66.7675 226.892 66.9836 226.767 67.1544C226.645 67.3237 226.491 67.4659 226.305 67.5811L225.247 68.236C225.015 68.3795 224.839 68.5249 224.72 68.6723C224.598 68.8211 224.547 68.9916 224.565 69.1838C224.583 69.3799 224.68 69.6205 224.857 69.9056L223.701 70.621ZM225.35 64.5889L226.741 63.7277L227.546 65.0285L226.155 65.8897L225.35 64.5889Z" fill="#FF8A00"/>
<path d="M236.374 84.093L235.585 84.4248C235.396 83.9744 235.173 83.698 234.918 83.5959C234.663 83.4964 234.334 83.5314 233.931 83.7009L233.059 84.0674C232.574 84.271 232.158 84.3658 231.81 84.3518C231.461 84.3415 231.16 84.2459 230.908 84.0651C230.658 83.8869 230.438 83.6419 230.248 83.3302C230.06 83.0211 229.882 82.6675 229.715 82.2695L230.968 81.7428C231.098 82.0518 231.237 82.2692 231.385 82.3948C231.532 82.5242 231.701 82.5824 231.893 82.5696C232.082 82.5579 232.303 82.4992 232.554 82.3935L233.701 81.9115C233.903 81.8267 234.108 81.7836 234.317 81.7821C234.529 81.7794 234.744 81.849 234.964 81.9909C235.187 82.1316 235.415 82.3701 235.648 82.7063C235.885 83.0415 236.127 83.5037 236.374 84.093ZM239.658 78.0908C239.825 78.4889 239.953 78.8634 240.042 79.2143C240.132 79.5678 240.153 79.8964 240.105 80.2001C240.058 80.5064 239.916 80.788 239.679 81.0448C239.445 81.3032 239.086 81.5342 238.602 81.7378L237.734 82.1027C237.33 82.2722 237.075 82.4827 236.968 82.7341C236.862 82.9881 236.904 83.3404 237.093 83.7908L236.304 84.1227C236.056 83.5334 235.894 83.0376 235.817 82.6353C235.743 82.2319 235.733 81.9021 235.785 81.6458C235.84 81.3884 235.942 81.1856 236.089 81.0375C236.239 80.8882 236.413 80.7717 236.612 80.6881L237.759 80.206C238.013 80.0992 238.211 79.9823 238.352 79.8554C238.495 79.7273 238.572 79.5656 238.582 79.3702C238.596 79.1763 238.538 78.9249 238.408 78.6158L239.658 78.0908ZM237.093 83.7908L235.585 84.4248L234.992 83.0145L236.501 82.3805L237.093 83.7908Z" fill="#FF8A00"/>
<path d="M240.752 97.5376L241.583 97.3328C241.701 97.81 241.877 98.1176 242.113 98.2555C242.349 98.3935 242.68 98.4102 243.104 98.3056L244.019 98.0804C244.529 97.9547 244.955 97.9245 245.295 97.9898C245.64 98.0571 245.922 98.1984 246.142 98.4134C246.362 98.6312 246.541 98.9089 246.68 99.2463C246.819 99.5837 246.939 99.9607 247.042 100.377L245.726 100.701C245.646 100.376 245.542 100.138 245.415 99.988C245.29 99.8401 245.133 99.7576 244.941 99.7404C244.752 99.7225 244.524 99.7465 244.257 99.8124L243.048 100.11C242.839 100.162 242.629 100.172 242.42 100.142C242.213 100.111 242.011 100.008 241.813 99.8348C241.618 99.6604 241.43 99.3893 241.249 99.0215C241.07 98.6529 240.904 98.1583 240.752 97.5376ZM236.569 102.956C236.467 102.54 236.399 102.15 236.365 101.787C236.331 101.423 236.361 101.094 236.455 100.799C236.55 100.506 236.734 100.25 237.008 100.031C237.279 99.8146 237.67 99.6438 238.18 99.5181L239.099 99.2919C239.524 99.1873 239.809 99.0191 239.953 98.7874C240.098 98.5557 240.112 98.2013 239.994 97.7241L240.826 97.5193C240.979 98.1399 241.06 98.6553 241.071 99.0653C241.084 99.4746 241.043 99.8021 240.948 100.048C240.857 100.293 240.725 100.477 240.554 100.601C240.385 100.725 240.195 100.813 239.982 100.865L238.774 101.162C238.509 101.228 238.297 101.312 238.139 101.416C237.977 101.52 237.876 101.666 237.834 101.855C237.791 102.047 237.809 102.306 237.889 102.631L236.569 102.956ZM239.994 97.7241L241.583 97.3328L241.949 98.8182L240.36 99.2095L239.994 97.7241Z" fill="#FF8A00"/>
<path d="M244.483 119.674L243.629 119.747C243.588 119.26 243.461 118.929 243.249 118.753C243.038 118.58 242.714 118.512 242.278 118.549L241.336 118.63C240.812 118.674 240.387 118.636 240.06 118.516C239.731 118.399 239.474 118.215 239.29 117.966C239.107 117.719 238.973 117.418 238.888 117.063C238.804 116.711 238.744 116.32 238.707 115.89L240.061 115.774C240.09 116.108 240.155 116.358 240.258 116.523C240.358 116.692 240.501 116.799 240.687 116.846C240.871 116.893 241.099 116.905 241.371 116.882L242.61 116.776C242.828 116.757 243.037 116.78 243.236 116.842C243.438 116.905 243.622 117.038 243.788 117.24C243.956 117.443 244.1 117.74 244.219 118.132C244.34 118.523 244.428 119.037 244.483 119.674ZM249.454 114.974C249.49 115.404 249.497 115.8 249.474 116.161C249.45 116.525 249.369 116.844 249.23 117.118C249.091 117.395 248.869 117.619 248.565 117.791C248.263 117.965 247.85 118.074 247.327 118.119L246.388 118.199C245.952 118.236 245.645 118.358 245.466 118.564C245.287 118.773 245.218 119.121 245.26 119.608L244.406 119.681C244.352 119.044 244.35 118.522 244.401 118.116C244.455 117.709 244.546 117.392 244.675 117.165C244.807 116.937 244.965 116.775 245.151 116.679C245.34 116.583 245.541 116.526 245.757 116.508L246.996 116.402C247.271 116.379 247.495 116.328 247.668 116.251C247.844 116.173 247.967 116.043 248.037 115.86C248.11 115.68 248.132 115.423 248.103 115.089L249.454 114.974ZM245.26 119.608L243.629 119.747L243.499 118.223L245.13 118.084L245.26 119.608Z" fill="#FF8A00"/>
<path d="M244.51 133.813L245.365 133.875C245.33 134.365 245.403 134.712 245.585 134.916C245.767 135.119 246.076 135.237 246.513 135.268L247.452 135.335C247.976 135.373 248.39 135.475 248.695 135.642C249.001 135.812 249.226 136.033 249.369 136.305C249.512 136.58 249.597 136.9 249.625 137.264C249.654 137.627 249.652 138.023 249.622 138.451L248.27 138.354C248.294 138.02 248.268 137.762 248.193 137.58C248.12 137.401 247.996 137.274 247.819 137.199C247.645 137.123 247.42 137.076 247.145 137.056L245.904 136.968C245.689 136.952 245.486 136.898 245.296 136.805C245.109 136.712 244.948 136.552 244.814 136.326C244.682 136.1 244.586 135.784 244.527 135.378C244.47 134.973 244.465 134.451 244.51 133.813ZM238.864 137.682C238.894 137.254 238.949 136.862 239.029 136.506C239.108 136.15 239.238 135.846 239.419 135.594C239.599 135.345 239.853 135.158 240.181 135.034C240.506 134.912 240.93 134.869 241.454 134.907L242.398 134.974C242.834 135.005 243.157 134.933 243.366 134.757C243.575 134.581 243.697 134.248 243.732 133.758L244.587 133.819C244.541 134.457 244.46 134.972 244.344 135.365C244.23 135.759 244.091 136.058 243.925 136.262C243.762 136.467 243.58 136.602 243.379 136.668C243.181 136.733 242.973 136.758 242.754 136.743L241.513 136.654C241.241 136.635 241.014 136.65 240.831 136.699C240.645 136.749 240.503 136.857 240.406 137.023C240.306 137.193 240.243 137.445 240.22 137.779L238.864 137.682ZM243.732 133.758L245.365 133.875L245.256 135.4L243.623 135.284L243.732 133.758Z" fill="#FF8A00"/>
<path d="M241.249 156.024L240.414 155.831C240.525 155.355 240.506 155.001 240.359 154.768C240.211 154.538 239.924 154.374 239.497 154.275L238.576 154.062C238.064 153.943 237.671 153.776 237.397 153.561C237.12 153.348 236.932 153.095 236.834 152.801C236.735 152.51 236.7 152.182 236.729 151.819C236.757 151.458 236.82 151.067 236.918 150.646L238.242 150.953C238.166 151.28 238.152 151.537 238.199 151.726C238.242 151.917 238.345 152.063 238.508 152.165C238.668 152.266 238.881 152.348 239.147 152.409L240.359 152.69C240.572 152.74 240.764 152.825 240.934 152.946C241.107 153.068 241.241 153.251 241.336 153.494C241.434 153.739 241.479 154.066 241.472 154.475C241.467 154.885 241.393 155.402 241.249 156.024ZM247.425 153.081C247.327 153.502 247.212 153.88 247.078 154.217C246.944 154.556 246.769 154.835 246.552 155.053C246.335 155.274 246.055 155.419 245.712 155.488C245.372 155.561 244.945 155.538 244.433 155.419L243.516 155.207C243.09 155.108 242.76 155.129 242.526 155.27C242.291 155.414 242.119 155.724 242.008 156.2L241.174 156.007C241.318 155.384 241.477 154.887 241.651 154.516C241.827 154.146 242.011 153.872 242.204 153.695C242.399 153.519 242.6 153.414 242.806 153.38C243.015 153.347 243.225 153.355 243.435 153.403L244.647 153.684C244.916 153.746 245.144 153.767 245.333 153.747C245.524 153.727 245.681 153.641 245.804 153.489C245.929 153.34 246.029 153.102 246.105 152.775L247.425 153.081ZM242.008 156.2L240.414 155.831L240.76 154.341L242.354 154.71L242.008 156.2Z" fill="#FF8A00"/>
<path d="M236.924 169.486L237.718 169.807C237.534 170.263 237.497 170.615 237.608 170.865C237.718 171.115 237.976 171.322 238.382 171.486L239.255 171.839C239.742 172.036 240.105 172.261 240.343 172.513C240.582 172.769 240.728 173.049 240.781 173.352C240.832 173.658 240.815 173.988 240.729 174.343C240.644 174.697 240.521 175.073 240.361 175.471L239.104 174.963C239.23 174.653 239.285 174.399 239.269 174.203C239.255 174.01 239.176 173.851 239.03 173.725C238.888 173.6 238.689 173.486 238.433 173.382L237.28 172.916C237.08 172.835 236.904 172.721 236.752 172.574C236.602 172.428 236.498 172.226 236.44 171.97C236.384 171.714 236.39 171.384 236.458 170.98C236.529 170.576 236.685 170.078 236.924 169.486ZM230.361 171.429C230.522 171.032 230.695 170.676 230.88 170.361C231.065 170.047 231.283 169.798 231.532 169.614C231.78 169.432 232.079 169.332 232.429 169.315C232.776 169.298 233.193 169.389 233.68 169.586L234.557 169.94C234.963 170.104 235.292 170.135 235.545 170.032C235.798 169.929 236.017 169.649 236.201 169.194L236.995 169.515C236.756 170.107 236.52 170.573 236.288 170.911C236.059 171.251 235.834 171.492 235.614 171.636C235.396 171.781 235.181 171.853 234.97 171.854C234.761 171.855 234.555 171.815 234.352 171.733L233.199 171.266C232.946 171.164 232.725 171.108 232.535 171.099C232.343 171.089 232.175 171.148 232.031 171.277C231.884 171.407 231.747 171.628 231.621 171.939L230.361 171.429ZM236.201 169.194L237.718 169.807L237.145 171.225L235.628 170.612L236.201 169.194Z" fill="#FF8A00"/>
<path d="M226.986 189.615L226.252 189.175C226.503 188.756 226.595 188.413 226.526 188.146C226.456 187.882 226.233 187.638 225.858 187.412L225.047 186.926C224.596 186.655 224.274 186.376 224.079 186.087C223.881 185.799 223.781 185.5 223.778 185.19C223.773 184.882 223.841 184.56 223.98 184.223C224.118 183.888 224.298 183.536 224.52 183.166L225.686 183.865C225.513 184.153 225.42 184.393 225.407 184.587C225.389 184.782 225.442 184.953 225.566 185.1C225.687 185.246 225.865 185.389 226.099 185.529L227.166 186.169C227.353 186.282 227.509 186.422 227.634 186.59C227.761 186.759 227.833 186.974 227.848 187.235C227.866 187.498 227.809 187.823 227.676 188.21C227.545 188.599 227.315 189.067 226.986 189.615ZM233.768 188.716C233.546 189.086 233.32 189.411 233.089 189.69C232.857 189.971 232.605 190.182 232.331 190.323C232.057 190.466 231.746 190.518 231.398 190.479C231.052 190.443 230.653 190.29 230.203 190.02L229.395 189.535C229.02 189.31 228.699 189.229 228.433 189.291C228.166 189.356 227.906 189.598 227.655 190.017L226.921 189.576C227.249 189.028 227.553 188.604 227.833 188.304C228.114 188.006 228.374 187.802 228.612 187.693C228.852 187.586 229.075 187.548 229.282 187.579C229.491 187.611 229.688 187.683 229.873 187.794L230.94 188.435C231.176 188.576 231.387 188.667 231.573 188.705C231.761 188.745 231.937 188.711 232.101 188.604C232.265 188.501 232.434 188.306 232.606 188.018L233.768 188.716ZM227.655 190.017L226.252 189.175L227.039 187.863L228.442 188.705L227.655 190.017Z" fill="#FF8A00"/>
<path d="M218.729 201.093L219.386 201.643C219.071 202.02 218.927 202.344 218.955 202.616C218.983 202.888 219.165 203.164 219.501 203.445L220.223 204.049C220.626 204.386 220.902 204.712 221.051 205.025C221.2 205.343 221.253 205.654 221.209 205.958C221.164 206.265 221.046 206.574 220.856 206.885C220.665 207.196 220.433 207.516 220.157 207.845L219.118 206.976C219.333 206.719 219.464 206.494 219.509 206.303C219.555 206.115 219.528 205.939 219.429 205.774C219.332 205.612 219.178 205.442 218.966 205.265L218.012 204.466C217.847 204.328 217.714 204.165 217.615 203.978C217.518 203.793 217.481 203.569 217.504 203.307C217.529 203.047 217.637 202.735 217.826 202.371C218.018 202.009 218.319 201.583 218.729 201.093ZM211.887 200.923C212.162 200.594 212.436 200.308 212.709 200.066C212.982 199.824 213.265 199.654 213.559 199.555C213.851 199.459 214.166 199.456 214.505 199.547C214.84 199.638 215.209 199.853 215.612 200.19L216.337 200.797C216.673 201.078 216.977 201.208 217.249 201.188C217.522 201.168 217.816 200.969 218.131 200.593L218.788 201.142C218.378 201.632 218.01 202.003 217.686 202.253C217.363 202.506 217.075 202.667 216.821 202.736C216.569 202.806 216.343 202.809 216.141 202.744C215.942 202.681 215.759 202.58 215.591 202.439L214.637 201.641C214.427 201.466 214.234 201.345 214.057 201.278C213.877 201.209 213.699 201.214 213.523 201.292C213.342 201.37 213.144 201.538 212.929 201.795L211.887 200.923ZM218.131 200.593L219.386 201.643L218.404 202.816L217.149 201.766L218.131 200.593Z" fill="#FF8A00"/>
<path d="M203.08 217.188L202.516 216.542C202.885 216.221 203.077 215.923 203.094 215.648C203.108 215.376 202.972 215.074 202.684 214.745L202.062 214.032C201.716 213.636 201.496 213.271 201.4 212.936C201.3 212.601 201.296 212.285 201.388 211.99C201.479 211.696 201.642 211.41 201.879 211.132C202.113 210.856 202.393 210.576 202.718 210.292L203.612 211.316C203.359 211.537 203.197 211.737 203.124 211.918C203.047 212.098 203.045 212.277 203.118 212.455C203.188 212.631 203.313 212.821 203.492 213.027L204.311 213.964C204.454 214.129 204.56 214.311 204.627 214.508C204.696 214.708 204.698 214.935 204.632 215.188C204.568 215.444 204.414 215.735 204.168 216.063C203.924 216.393 203.561 216.768 203.08 217.188ZM209.809 218.419C209.484 218.703 209.169 218.942 208.864 219.137C208.556 219.333 208.251 219.456 207.947 219.506C207.642 219.558 207.33 219.511 207.012 219.367C206.693 219.227 206.361 218.958 206.015 218.562L205.396 217.853C205.108 217.523 204.828 217.347 204.556 217.324C204.282 217.304 203.96 217.454 203.592 217.775L203.029 217.13C203.511 216.71 203.93 216.4 204.288 216.201C204.648 216.004 204.958 215.89 205.218 215.859C205.479 215.831 205.704 215.863 205.891 215.956C206.079 216.052 206.245 216.181 206.387 216.344L207.205 217.281C207.386 217.489 207.559 217.639 207.724 217.733C207.89 217.829 208.068 217.851 208.257 217.8C208.445 217.752 208.666 217.618 208.918 217.398L209.809 218.419ZM203.592 217.775L202.516 216.542L203.669 215.537L204.745 216.769L203.592 217.775Z" fill="#FF8A00"/>
<path d="M191.691 225.568L192.147 226.293C191.731 226.555 191.495 226.819 191.438 227.086C191.381 227.354 191.469 227.672 191.702 228.043L192.203 228.84C192.482 229.285 192.645 229.68 192.69 230.024C192.734 230.372 192.689 230.684 192.554 230.96C192.416 231.238 192.209 231.495 191.932 231.733C191.655 231.971 191.335 232.204 190.972 232.432L190.251 231.285C190.535 231.106 190.728 230.933 190.83 230.765C190.932 230.6 190.96 230.425 190.917 230.237C190.874 230.053 190.78 229.843 190.633 229.61L189.971 228.557C189.856 228.374 189.78 228.178 189.743 227.97C189.708 227.764 189.741 227.54 189.844 227.298C189.948 227.058 190.147 226.794 190.439 226.506C190.733 226.221 191.15 225.908 191.691 225.568ZM185.233 223.3C185.596 223.072 185.945 222.885 186.279 222.738C186.613 222.592 186.935 222.517 187.245 222.514C187.553 222.512 187.854 222.606 188.148 222.797C188.439 222.987 188.724 223.304 189.003 223.749L189.507 224.55C189.739 224.921 189.989 225.138 190.254 225.203C190.52 225.268 190.86 225.169 191.276 224.908L191.732 225.633C191.191 225.973 190.727 226.212 190.341 226.351C189.957 226.492 189.633 226.556 189.37 226.544C189.109 226.533 188.892 226.466 188.721 226.343C188.55 226.222 188.407 226.068 188.291 225.883L187.629 224.83C187.484 224.599 187.337 224.424 187.189 224.306C187.039 224.185 186.868 224.135 186.676 224.155C186.48 224.174 186.24 224.273 185.956 224.451L185.233 223.3ZM191.276 224.908L192.147 226.293L190.852 227.107L189.981 225.722L191.276 224.908Z" fill="#FF8A00"/>
<path d="M171.848 236.066L171.511 235.279C171.96 235.086 172.235 234.862 172.335 234.606C172.433 234.351 172.396 234.022 172.224 233.62L171.851 232.75C171.644 232.267 171.547 231.852 171.558 231.504C171.566 231.154 171.66 230.853 171.839 230.6C172.015 230.348 172.259 230.126 172.569 229.935C172.877 229.744 173.229 229.564 173.626 229.394L174.161 230.643C173.853 230.775 173.637 230.916 173.512 231.065C173.384 231.213 173.327 231.383 173.341 231.574C173.354 231.763 173.414 231.983 173.522 232.234L174.012 233.378C174.098 233.579 174.142 233.784 174.145 233.993C174.149 234.204 174.081 234.421 173.941 234.641C173.802 234.865 173.565 235.094 173.23 235.331C172.897 235.569 172.436 235.814 171.848 236.066ZM177.873 239.308C177.476 239.478 177.102 239.609 176.752 239.7C176.399 239.793 176.071 239.816 175.767 239.77C175.46 239.725 175.178 239.585 174.919 239.35C174.659 239.118 174.426 238.76 174.219 238.277L173.848 237.412C173.676 237.009 173.464 236.756 173.211 236.651C172.957 236.546 172.605 236.591 172.155 236.783L171.818 235.996C172.406 235.744 172.9 235.578 173.302 235.499C173.705 235.422 174.035 235.409 174.291 235.46C174.549 235.513 174.753 235.613 174.902 235.759C175.052 235.908 175.17 236.082 175.255 236.28L175.745 237.424C175.853 237.678 175.972 237.874 176.099 238.014C176.229 238.157 176.391 238.232 176.586 238.241C176.78 238.254 177.031 238.194 177.339 238.062L177.873 239.308ZM172.155 236.783L171.511 235.279L172.917 234.676L173.562 236.181L172.155 236.783Z" fill="#FF8A00"/>
<path d="M158.434 240.535L158.645 241.366C158.168 241.486 157.862 241.665 157.726 241.902C157.589 242.139 157.575 242.469 157.682 242.893L157.914 243.806C158.043 244.316 158.076 244.741 158.013 245.082C157.948 245.427 157.809 245.71 157.595 245.931C157.379 246.153 157.103 246.334 156.766 246.475C156.43 246.616 156.054 246.74 155.638 246.845L155.305 245.532C155.63 245.449 155.867 245.344 156.016 245.215C156.163 245.09 156.244 244.931 156.26 244.74C156.277 244.551 156.251 244.323 156.183 244.056L155.878 242.85C155.825 242.64 155.813 242.431 155.841 242.221C155.871 242.015 155.972 241.812 156.144 241.613C156.317 241.416 156.587 241.226 156.954 241.043C157.321 240.862 157.815 240.692 158.434 240.535ZM152.987 236.39C153.403 236.285 153.792 236.214 154.155 236.178C154.518 236.141 154.848 236.169 155.144 236.261C155.437 236.354 155.694 236.536 155.915 236.809C156.133 237.079 156.307 237.468 156.436 237.978L156.669 238.895C156.776 239.319 156.946 239.603 157.179 239.746C157.412 239.889 157.766 239.9 158.242 239.779L158.453 240.61C157.833 240.767 157.319 240.852 156.909 240.865C156.499 240.881 156.172 240.842 155.925 240.749C155.68 240.659 155.494 240.529 155.369 240.358C155.245 240.191 155.155 240.001 155.102 239.789L154.796 238.583C154.729 238.318 154.643 238.107 154.538 237.949C154.433 237.788 154.286 237.688 154.097 237.648C153.905 237.606 153.646 237.626 153.321 237.708L152.987 236.39ZM158.242 239.779L158.645 241.366L157.162 241.742L156.76 240.155L158.242 239.779Z" fill="#FF8A00"/>
<path d="M136.324 244.418L136.245 243.565C136.731 243.52 137.062 243.392 137.236 243.179C137.408 242.966 137.474 242.642 137.433 242.206L137.347 241.264C137.298 240.741 137.333 240.315 137.451 239.988C137.567 239.658 137.748 239.4 137.996 239.214C138.242 239.029 138.542 238.893 138.896 238.806C139.247 238.72 139.638 238.656 140.068 238.617L140.193 239.97C139.859 240.001 139.61 240.068 139.446 240.172C139.278 240.273 139.171 240.417 139.126 240.604C139.08 240.788 139.07 241.015 139.095 241.287L139.209 242.526C139.229 242.744 139.208 242.953 139.147 243.152C139.086 243.355 138.954 243.54 138.753 243.706C138.552 243.876 138.256 244.022 137.864 244.144C137.474 244.268 136.96 244.36 136.324 244.418ZM141.058 249.357C140.628 249.396 140.233 249.406 139.871 249.385C139.507 249.364 139.187 249.285 138.912 249.148C138.634 249.011 138.408 248.791 138.235 248.487C138.059 248.187 137.947 247.775 137.899 247.252L137.812 246.314C137.772 245.878 137.648 245.571 137.441 245.394C137.23 245.216 136.882 245.15 136.395 245.195L136.316 244.342C136.953 244.283 137.475 244.278 137.881 244.326C138.288 244.377 138.606 244.466 138.835 244.593C139.063 244.723 139.226 244.881 139.323 245.066C139.42 245.254 139.479 245.455 139.499 245.67L139.613 246.909C139.638 247.184 139.69 247.407 139.769 247.58C139.848 247.755 139.979 247.877 140.162 247.946C140.343 248.018 140.6 248.038 140.934 248.007L141.058 249.357ZM136.395 245.195L136.245 243.565L137.768 243.425L137.918 245.054L136.395 245.195Z" fill="#FF8A00"/>
</g>
<defs>
<filter id="filter0_d_8_998" x="0.284359" y="0.318758" width="254.641" height="254.437" filterUnits="userSpaceOnUse" color-interpolation-filters="sRGB">
<feFlood flood-opacity="0" result="BackgroundImageFix"/>
<feColorMatrix in="SourceAlpha" type="matrix" values="0 0 0 0 0 0 0 0 0 0 0 0 0 0 0 0 0 0 127 0" result="hardAlpha"/>
<feOffset/>
<feGaussianBlur stdDeviation="2.5"/>
<feComposite in2="hardAlpha" operator="out"/>
<feColorMatrix type="matrix" values="0 0 0 0 1 0 0 0 0 0.54 0 0 0 0 0 0 0 0 1 0"/>
<feBlend mode="normal" in2="BackgroundImageFix" result="effect1_dropShadow_8_998"/>
<feBlend mode="normal" in="SourceGraphic" in2="effect1_dropShadow_8_998" result="shape"/>
</filter>
</defs>
</svg>
