<svg width="262" height="262" viewBox="0 0 262 262" fill="none" xmlns="http://www.w3.org/2000/svg">
<g filter="url(#filter0_d_7_113)">
<path d="M127.92 248.316L127.82 249.813L121.657 252.05L121.772 250.328L125.981 248.956L125.92 249.041L125.934 248.829L125.983 248.922L121.994 247.003L122.109 245.281L127.92 248.316Z" fill="#EB00FF"/>
<path d="M107.945 245.815L114.333 244.338L114.011 246.034L109.668 246.888L109.739 246.81L109.699 247.02L109.661 246.921L113.39 249.308L113.068 251.003L107.666 247.289L107.945 245.815Z" fill="#EB00FF"/>
<path d="M100.03 243.863L99.5747 245.292L93.0558 245.988L93.5798 244.343L97.9945 244.019L97.9146 244.088L97.9793 243.885L98.0049 243.987L94.5916 241.168L95.1156 239.524L100.03 243.863Z" fill="#EB00FF"/>
<path d="M81.0071 243.599L87.7697 235.152L89.2027 235.778L82.44 244.225L81.0071 243.599Z" fill="#EB00FF"/>
<path d="M72.3411 231.853L78.8637 232.514L78.0124 234.015L73.6255 233.424L73.7178 233.373L73.6127 233.558L73.6087 233.453L76.3688 236.914L75.5175 238.415L71.6013 233.158L72.3411 231.853Z" fill="#EB00FF"/>
<path d="M65.4776 227.453L64.5857 228.659L58.1906 227.216L59.2167 225.829L63.5002 226.945L63.4025 226.984L63.5292 226.813L63.5205 226.918L61.1981 223.149L62.2242 221.762L65.4776 227.453Z" fill="#EB00FF"/>
<path d="M50.0119 214.567L56.1863 216.771L55.0002 218.025L50.8827 216.4L50.9844 216.373L50.838 216.528L50.8593 216.425L52.7102 220.446L51.5241 221.7L48.9811 215.657L50.0119 214.567Z" fill="#EB00FF"/>
<path d="M44.4018 208.652L43.2471 209.61L37.3836 206.677L38.7122 205.575L42.6037 207.685L42.4995 207.7L42.6635 207.564L42.63 207.663L41.2776 203.448L42.6062 202.347L44.4018 208.652Z" fill="#EB00FF"/>
<path d="M28.5295 198.163L38.7816 194.702L39.6499 196.002L29.3977 199.464L28.5295 198.163Z" fill="#EB00FF"/>
<path d="M27.5733 183.598L32.7075 187.674L31.1807 188.479L27.8068 185.613L27.9118 185.621L27.7233 185.72L27.7766 185.629L28.2325 190.032L26.7056 190.837L26.2462 184.297L27.5733 183.598Z" fill="#EB00FF"/>
<path d="M24.1695 176.19L22.7677 176.724L18.1627 172.058L19.7755 171.443L22.7791 174.695L22.6757 174.675L22.8748 174.599L22.8109 174.683L22.8896 170.257L24.5023 169.642L24.1695 176.19Z" fill="#EB00FF"/>
<path d="M18.1039 156.995L22.1124 162.183L20.4373 162.598L17.8479 159.008L17.9481 159.04L17.7413 159.091L17.8148 159.016L17.2029 163.4L15.5278 163.816L16.648 157.356L18.1039 156.995Z" fill="#EB00FF"/>
<path d="M16.5734 148.987L15.0845 149.17L11.7311 143.537L13.4441 143.327L15.5815 147.203L15.4859 147.159L15.6974 147.133L15.6153 147.199L16.7517 142.921L18.4647 142.71L16.5734 148.987Z" fill="#EB00FF"/>
<path d="M8.87192 131.591L19.371 134.21L19.3999 135.773L8.90085 133.155L8.87192 131.591Z" fill="#EB00FF"/>
<path d="M15.9278 118.813L18.05 125.016L16.3304 124.869L15.0366 120.636L15.1211 120.698L14.9088 120.68L15.0026 120.633L13.0101 124.586L11.2905 124.439L14.4333 118.685L15.9278 118.813Z" fill="#EB00FF"/>
<path d="M17.0603 110.739L15.592 110.432L14.2336 104.019L15.9229 104.372L16.6966 108.73L16.6203 108.658L16.8289 108.701L16.73 108.737L19.1848 105.054L20.8741 105.407L17.0603 110.739Z" fill="#EB00FF"/>
<path d="M22.3133 91.3064L22.8881 97.8371L21.2537 97.2828L21.0114 92.8628L21.0784 92.944L20.8766 92.8755L20.9792 92.8518L18.0979 96.2124L16.4635 95.658L20.8928 90.8246L22.3133 91.3064Z" fill="#EB00FF"/>
<path d="M25.3464 83.7392L23.9943 83.0896L24.2115 76.5372L25.7671 77.2847L25.4744 81.7016L25.4178 81.6129L25.6098 81.7052L25.5052 81.7164L28.7708 78.7279L30.3263 79.4754L25.3464 83.7392Z" fill="#EB00FF"/>
<path d="M28.2515 64.9374L35.677 72.8083L34.8575 74.1403L27.432 66.2694L28.2515 64.9374Z" fill="#EB00FF"/>
<path d="M41.088 57.9879L39.5269 64.3552L38.1584 63.3036L39.3539 59.0415L39.3911 59.1399L39.2222 59.0101L39.3269 59.0207L35.5161 61.2731L34.1477 60.2214L39.8986 57.0739L41.088 57.9879Z" fill="#EB00FF"/>
<path d="M46.3985 51.8024L45.3281 50.7515L47.6459 44.619L48.8775 45.828L47.1766 49.9148L47.1515 49.8126L47.3036 49.9619L47.2009 49.9387L51.2555 48.1625L52.4871 49.3715L46.3985 51.8024Z" fill="#EB00FF"/>
<path d="M61.3087 38.2775L58.268 44.0857L57.1913 42.7369L59.3727 38.8852L59.3853 38.9897L59.2524 38.8232L59.3515 38.8585L55.1122 40.1327L54.0354 38.7839L60.3728 37.1053L61.3087 38.2775Z" fill="#EB00FF"/>
<path d="M67.9461 33.5439L67.1585 32.2673L70.8776 26.8683L71.7838 28.3371L69.1536 31.8976L69.1537 31.7924L69.2656 31.9737L69.1715 31.9266L73.5335 31.1732L74.4397 32.642L67.9461 33.5439Z" fill="#EB00FF"/>
<path d="M80.5391 19.2833L82.5424 29.917L81.1336 30.596L79.1303 19.9623L80.5391 19.2833Z" fill="#EB00FF"/>
<path d="M95.0961 20.3605L90.3455 24.8784L89.761 23.2545L93.0677 20.3116L93.0459 20.4146L92.9737 20.2141L93.0561 20.2796L88.6324 20.1191L88.0479 18.4952L94.5881 18.9491L95.0961 20.3605Z" fill="#EB00FF"/>
<path d="M102.905 18.0192L102.571 16.5569L107.832 12.645L108.216 14.3275L104.579 16.8501L104.613 16.7505L104.66 16.9582L104.586 16.8833L108.959 17.5763L109.343 19.2588L102.905 18.0192Z" fill="#EB00FF"/>
<path d="M122.757 14.6801L117.062 17.9287L116.884 16.2122L120.799 14.1468L120.753 14.2416L120.731 14.0296L120.796 14.1129L116.539 12.8977L116.36 11.1811L122.602 13.1881L122.757 14.6801Z" fill="#EB00FF"/>
<path d="M130.899 14.2772L130.925 12.7774L136.97 10.2394L136.94 11.965L132.804 13.5429L132.861 13.4544L132.858 13.6675L132.804 13.577L136.883 15.2969L136.853 17.0225L130.899 14.2772Z" fill="#EB00FF"/>
<path d="M149.197 9.06809L145.145 19.1014L143.592 18.9127L147.645 8.87943L149.197 9.06809Z" fill="#EB00FF"/>
<path d="M160.871 17.8313L154.433 19.0709L154.817 17.3884L159.19 16.6954L159.116 16.7703L159.163 16.5626L159.197 16.6622L155.56 14.1396L155.944 12.4571L161.205 16.369L160.871 17.8313Z" fill="#EB00FF"/>
<path d="M168.709 20.0748L169.217 18.6634L175.757 18.2095L175.172 19.8333L170.749 19.9938L170.831 19.9284L170.759 20.1288L170.737 20.0259L174.044 22.9688L173.459 24.5927L168.709 20.0748Z" fill="#EB00FF"/>
<path d="M187.223 27.9774L180.676 27.6391L181.452 26.0976L185.863 26.4719L185.773 26.5269L185.869 26.3366L185.878 26.4415L182.95 23.1212L183.726 21.5797L187.897 26.6377L187.223 27.9774Z" fill="#EB00FF"/>
<path d="M194.295 32.0327L195.126 30.7841L201.585 31.9097L200.629 33.3464L196.295 32.4427L196.391 32.3989L196.273 32.5763L196.276 32.4711L198.782 36.1203L197.826 37.5569L194.295 32.0327Z" fill="#EB00FF"/>
<path d="M212.511 37.5226L203.684 43.7822L202.479 42.7855L211.306 36.5259L212.511 37.5226Z" fill="#EB00FF"/>
<path d="M217.609 51.2002L211.52 48.7694L212.752 47.5604L216.807 49.3366L216.704 49.3597L216.856 49.2105L216.831 49.3127L215.13 45.2259L216.362 44.0169L218.679 50.1494L217.609 51.2002Z" fill="#EB00FF"/>
<path d="M222.996 57.3189L224.186 56.4049L229.937 59.5524L228.568 60.6041L224.758 58.3517L224.862 58.3411L224.693 58.4709L224.731 58.3725L225.926 62.6346L224.558 63.6862L222.996 57.3189Z" fill="#EB00FF"/>
<path d="M234.318 73.9639L228.989 70.1456L230.474 69.2667L233.985 71.9623L233.88 71.9602L234.063 71.8517L234.015 71.945L233.342 67.5697L234.827 66.6909L235.609 73.2001L234.318 73.9639Z" fill="#EB00FF"/>
<path d="M238.083 81.1948L239.457 80.5922L244.287 85.0255L242.706 85.7188L239.546 82.6193L239.65 82.6341L239.455 82.7197L239.515 82.633L239.654 87.0574L238.074 87.7507L238.083 81.1948Z" fill="#EB00FF"/>
<path d="M250.455 95.6474L239.647 96.1535L239.17 94.664L249.979 94.1579L250.455 95.6474Z" fill="#EB00FF"/>
<path d="M247.366 109.913L243.552 104.581L245.241 104.228L247.696 107.911L247.597 107.876L247.806 107.832L247.729 107.905L248.503 103.546L250.192 103.193L248.834 109.607L247.366 109.913Z" fill="#EB00FF"/>
<path d="M248.599 117.972L250.094 117.845L253.236 123.598L251.517 123.745L249.524 119.792L249.618 119.84L249.406 119.858L249.49 119.795L248.196 124.028L246.477 124.175L248.599 117.972Z" fill="#EB00FF"/>
<path d="M249.147 138.095L246.721 132.004L248.446 132.066L249.947 136.23L249.86 136.172L250.073 136.18L249.981 136.232L251.776 132.185L253.501 132.247L250.646 138.149L249.147 138.095Z" fill="#EB00FF"/>
<path d="M248.414 146.215L249.896 146.449L251.569 152.787L249.865 152.518L248.877 148.203L248.956 148.272L248.746 148.239L248.843 148.198L246.573 151.998L244.868 151.729L248.414 146.215Z" fill="#EB00FF"/>
<path d="M251.03 165.059L241.657 159.651L242.06 158.14L251.433 163.548L251.03 165.059Z" fill="#EB00FF"/>
<path d="M240.73 175.401L240.397 168.854L242.009 169.468L242.088 173.894L242.024 173.811L242.223 173.886L242.12 173.906L245.123 170.655L246.736 171.269L242.131 175.935L240.73 175.401Z" fill="#EB00FF"/>
<path d="M237.419 182.851L238.746 183.55L238.286 190.09L236.759 189.286L237.215 184.883L237.269 184.973L237.08 184.874L237.185 184.867L233.811 187.732L232.284 186.928L237.419 182.851Z" fill="#EB00FF"/>
<path d="M227.02 200.088L228.265 193.651L229.683 194.634L228.7 198.95L228.658 198.853L228.833 198.975L228.728 198.969L232.423 196.532L233.841 197.514L228.253 200.942L227.02 200.088Z" fill="#EB00FF"/>
<path d="M222.021 206.528L223.142 207.525L221.13 213.764L219.84 212.617L221.337 208.451L221.367 208.552L221.208 208.411L221.311 208.429L217.349 210.403L216.06 209.256L222.021 206.528Z" fill="#EB00FF"/>
<path d="M214.053 223.804L209.081 214.193L210.235 213.138L215.207 222.749L214.053 223.804Z" fill="#EB00FF"/>
<path d="M199.799 226.952L203.053 221.26L204.079 222.648L201.756 226.416L201.748 226.311L201.874 226.482L201.777 226.443L206.06 225.327L207.086 226.715L200.691 228.158L199.799 226.952Z" fill="#EB00FF"/>
<path d="M192.991 231.437L193.731 232.741L189.815 237.999L188.964 236.498L191.724 233.037L191.72 233.142L191.615 232.957L191.707 233.007L187.32 233.599L186.469 232.098L192.991 231.437Z" fill="#EB00FF"/>
<path d="M174.935 240.335L179.456 235.588L180.12 237.181L176.963 240.284L176.98 240.18L177.062 240.376L176.976 240.315L181.402 240.257L182.066 241.85L175.512 241.72L174.935 240.335Z" fill="#EB00FF"/>
<path d="M167.251 243.059L167.656 244.503L162.595 248.67L162.128 247.008L165.637 244.309L165.607 244.41L165.55 244.205L165.627 244.276L161.226 243.8L160.76 242.139L167.251 243.059Z" fill="#EB00FF"/>
<path d="M151.219 253.303L152.22 242.528L153.761 242.263L152.76 253.037L151.219 253.303Z" fill="#EB00FF"/>
<path d="M137.521 248.26L143.331 245.224L143.446 246.946L139.457 248.865L139.507 248.772L139.521 248.985L139.459 248.899L143.668 250.271L143.783 251.993L137.62 249.757L137.521 248.26Z" fill="#EB00FF"/>
</g>
<defs>
<filter id="filter0_d_7_113" x="0.871922" y="0.540161" width="260.629" height="260.762" filterUnits="userSpaceOnUse" color-interpolation-filters="sRGB">
<feFlood flood-opacity="0" result="BackgroundImageFix"/>
<feColorMatrix in="SourceAlpha" type="matrix" values="0 0 0 0 0 0 0 0 0 0 0 0 0 0 0 0 0 0 127 0" result="hardAlpha"/>
<feOffset/>
<feGaussianBlur stdDeviation="4"/>
<feComposite in2="hardAlpha" operator="out"/>
<feColorMatrix type="matrix" values="0 0 0 0 0.921569 0 0 0 0 0 0 0 0 0 1 0 0 0 1 0"/>
<feBlend mode="normal" in2="BackgroundImageFix" result="effect1_dropShadow_7_113"/>
<feBlend mode="normal" in="SourceGraphic" in2="effect1_dropShadow_7_113" result="shape"/>
</filter>
</defs>
</svg>
