<svg width="147" height="147" viewBox="0 0 147 147" fill="none" xmlns="http://www.w3.org/2000/svg">
<g filter="url(#filter0_d_9_825)">
<path d="M71.5441 143.275L74.3655 132.828L75.9294 132.83L73.108 143.276L71.5441 143.275Z" fill="#00F0FF"/>
<path d="M60.3899 142.038L64.8501 132.179L66.3935 132.431L61.9334 142.29L60.3899 142.038Z" fill="#00F0FF"/>
<path d="M49.5784 139.029L55.5619 130.013L57.0449 130.509L51.0615 139.525L49.5784 139.029Z" fill="#00F0FF"/>
<path d="M39.3895 134.324L46.7414 126.385L48.1256 127.112L40.7738 135.052L39.3895 134.324Z" fill="#00F0FF"/>
<path d="M30.0869 128.047L38.6169 121.389L39.8665 122.329L31.3365 128.987L30.0869 128.047Z" fill="#00F0FF"/>
<path d="M21.9113 120.359L31.3986 115.155L32.4813 116.284L22.994 121.487L21.9113 120.359Z" fill="#00F0FF"/>
<path d="M15.0745 111.459L25.2736 107.844L26.1612 109.132L15.9622 112.747L15.0745 111.459Z" fill="#00F0FF"/>
<path d="M9.75345 101.578L20.4002 99.6457L21.0699 101.059L10.4231 102.992L9.75345 101.578Z" fill="#00F0FF"/>
<path d="M6.08582 90.972L16.9047 90.7718L17.3391 92.2742L6.52018 92.4744L6.08582 90.972Z" fill="#00F0FF"/>
<path d="M4.16656 79.9148L14.8776 81.4522L15.0654 83.0048L4.35437 81.4674L4.16656 79.9148Z" fill="#00F0FF"/>
<path d="M4.04536 68.6929L14.3712 71.9281L14.3075 73.4907L3.98174 70.2555L4.04536 68.6929Z" fill="#00F0FF"/>
<path d="M5.72539 57.5968L15.3987 62.4461L15.0853 63.9783L5.412 59.129L5.72539 57.5968Z" fill="#00F0FF"/>
<path d="M9.16311 46.9138L17.9336 53.2516L17.3785 54.7137L8.60806 48.3759L9.16311 46.9138Z" fill="#00F0FF"/>
<path d="M14.2696 36.9203L21.9102 44.5826L21.1278 45.9368L13.4872 38.2745L14.2696 36.9203Z" fill="#00F0FF"/>
<path d="M20.9126 27.8751L27.2255 36.6635L26.2361 37.8747L19.9232 29.0863L20.9126 27.8751Z" fill="#00F0FF"/>
<path d="M28.9202 20.0123L33.742 29.6993L32.5712 30.7362L27.7494 21.0491L28.9202 20.0123Z" fill="#00F0FF"/>
<path d="M38.0851 13.5354L41.291 23.8703L39.969 24.706L36.7632 14.3711L38.0851 13.5354Z" fill="#00F0FF"/>
<path d="M48.1701 8.6121L49.6771 19.3274L48.2382 19.9403L46.7312 9.22495L48.1701 8.6121Z" fill="#00F0FF"/>
<path d="M58.914 5.36983L58.6831 16.1881L57.1646 16.5623L57.3955 5.74401L58.914 5.36983Z" fill="#00F0FF"/>
<path d="M70.0389 3.89253L68.0761 14.5338L66.5172 14.6596L68.4801 4.01834L70.0389 3.89253Z" fill="#00F0FF"/>
<path d="M81.2567 4.21841L77.6128 14.4072L76.0539 14.2814L79.6979 4.0926L81.2567 4.21841Z" fill="#00F0FF"/>
<path d="M92.2771 6.33908L87.0464 15.8116L85.5279 15.4374L90.7586 5.96491L92.2771 6.33908Z" fill="#00F0FF"/>
<path d="M102.815 10.1996L96.1326 18.7107L94.6937 18.0978L101.376 9.58676L102.815 10.1996Z" fill="#00F0FF"/>
<path d="M112.597 15.7001L104.636 23.0294L103.314 22.1937L111.275 14.8644L112.597 15.7001Z" fill="#00F0FF"/>
<path d="M121.37 22.6981L112.337 28.6559L111.167 27.6191L120.199 21.6612L121.37 22.6981Z" fill="#00F0FF"/>
<path d="M128.908 31.0125L119.036 35.4446L118.047 34.2334L127.919 29.8013L128.908 31.0125Z" fill="#00F0FF"/>
<path d="M135.015 40.4281L124.56 43.2198L123.778 41.8656L134.232 39.0739L135.015 40.4281Z" fill="#00F0FF"/>
<path d="M139.532 50.7012L128.765 51.7802L128.21 50.3181L138.977 49.2391L139.532 50.7012Z" fill="#00F0FF"/>
<path d="M142.344 61.5658L131.544 60.9042L131.23 59.372L142.031 60.0336L142.344 61.5658Z" fill="#00F0FF"/>
<path d="M143.377 72.7407L132.822 70.3556L132.759 68.7929L143.313 71.1781L143.377 72.7407Z" fill="#00F0FF"/>
<path d="M142.605 83.9366L132.569 79.8897L132.757 78.3371L142.792 82.384L142.605 83.9366Z" fill="#00F0FF"/>
<path d="M140.047 94.8638L130.79 89.2599L131.224 87.7575L140.481 93.3614L140.047 94.8638Z" fill="#00F0FF"/>
<path d="M135.769 105.239L127.531 98.2234L128.201 96.8101L136.439 103.826L135.769 105.239Z" fill="#00F0FF"/>
<path d="M129.884 114.795L122.877 106.548L123.765 105.261L130.771 113.507L129.884 114.795Z" fill="#00F0FF"/>
<path d="M122.542 123.282L116.949 114.019L118.031 112.891L123.624 122.154L122.542 123.282Z" fill="#00F0FF"/>
<path d="M113.934 130.483L109.898 120.443L111.148 119.502L115.183 129.542L113.934 130.483Z" fill="#00F0FF"/>
<path d="M104.282 136.21L101.909 125.652L103.294 124.924L105.667 135.482L104.282 136.21Z" fill="#00F0FF"/>
<path d="M93.8375 140.314L93.1882 129.513L94.6713 129.017L95.3206 139.818L93.8375 140.314Z" fill="#00F0FF"/>
<path d="M82.8695 142.691L83.9608 131.926L85.5043 131.674L84.413 142.439L82.8695 142.691Z" fill="#00F0FF"/>
<path d="M71.6624 143.278L74.466 132.827L76.0299 132.826L73.2263 143.277L71.6624 143.278Z" fill="#00F0FF"/>
</g>
<defs>
<filter id="filter0_d_9_825" x="0.867332" y="0.866348" width="145.51" height="145.412" filterUnits="userSpaceOnUse" color-interpolation-filters="sRGB">
<feFlood flood-opacity="0" result="BackgroundImageFix"/>
<feColorMatrix in="SourceAlpha" type="matrix" values="0 0 0 0 0 0 0 0 0 0 0 0 0 0 0 0 0 0 127 0" result="hardAlpha"/>
<feOffset/>
<feGaussianBlur stdDeviation="1.5"/>
<feComposite in2="hardAlpha" operator="out"/>
<feColorMatrix type="matrix" values="0 0 0 0 0 0 0 0 0 0.94 0 0 0 0 1 0 0 0 1 0"/>
<feBlend mode="normal" in2="BackgroundImageFix" result="effect1_dropShadow_9_825"/>
<feBlend mode="normal" in="SourceGraphic" in2="effect1_dropShadow_9_825" result="shape"/>
</filter>
</defs>
</svg>
